<?xml version="1.0" encoding="UTF-8" ?>
<!DOCTYPE svg PUBLIC "-//W3C//DTD SVG 1.1//EN" "http://www.w3.org/Graphics/SVG/1.1/DTD/svg11.dtd">
<svg width="905pt" height="211pt" viewBox="0 0 905 211" version="1.1" xmlns="http://www.w3.org/2000/svg">
<g id="#ffffffff">
</g>
<g id="#1e43b3ff">
<path fill="#1e43b3" opacity="1.00" d=" M 483.40 35.67 C 499.92 32.33 518.08 35.07 531.83 45.18 C 541.08 51.84 547.68 61.63 551.70 72.20 C 556.34 84.21 557.62 97.23 557.36 110.01 C 557.62 125.08 555.49 140.63 548.16 154.01 C 541.42 166.98 529.57 177.51 515.40 181.55 C 504.92 184.96 493.57 184.94 482.90 182.41 C 467.14 179.10 453.40 168.23 445.91 154.06 C 438.31 140.39 435.98 124.47 436.43 109.01 C 435.93 91.22 439.39 72.63 449.90 57.91 C 457.81 46.68 469.93 38.48 483.40 35.67 M 489.24 42.14 C 482.98 43.17 476.75 44.93 471.32 48.31 C 460.51 54.56 452.80 65.31 448.96 77.07 C 444.07 90.50 444.02 105.01 444.57 119.11 C 445.73 134.46 450.38 150.37 461.42 161.61 C 479.82 181.02 514.31 181.06 532.93 161.93 C 543.98 150.13 548.69 133.76 549.37 117.92 C 549.20 108.28 550.09 98.53 548.12 89.01 C 545.82 74.23 538.99 59.31 526.45 50.54 C 515.83 42.85 502.07 40.46 489.24 42.14 Z" />
<path fill="#1e43b3" opacity="1.00" d=" M 819.04 35.61 C 832.88 33.01 847.75 34.15 860.45 40.53 C 871.58 46.38 880.20 56.57 884.41 68.39 C 887.49 76.71 888.41 85.64 888.92 94.44 C 877.79 94.48 866.66 94.44 855.53 94.46 C 854.08 86.34 853.79 77.33 848.27 70.68 C 843.76 65.60 836.34 64.71 829.92 65.14 C 821.30 65.36 813.43 71.18 810.04 79.00 C 804.37 91.17 805.73 104.94 805.61 117.97 C 806.00 128.40 807.99 139.67 815.41 147.53 C 820.08 152.55 827.36 153.78 833.91 153.47 C 839.12 152.79 845.04 151.90 848.55 147.55 C 853.64 141.00 854.18 132.40 855.59 124.54 C 866.84 124.56 878.08 124.50 889.33 124.57 C 888.04 133.87 887.36 143.44 883.46 152.13 C 877.61 166.60 864.80 177.87 849.72 181.90 C 834.41 185.79 817.48 185.10 803.29 177.70 C 790.72 170.72 781.25 158.77 776.50 145.27 C 771.90 132.74 771.43 119.21 771.69 106.00 C 771.32 89.14 774.82 71.63 784.68 57.65 C 792.65 46.16 805.29 38.12 819.04 35.61 M 811.42 45.62 C 802.42 49.51 794.64 56.14 789.60 64.57 C 781.42 77.76 779.30 93.75 779.69 108.99 C 779.41 125.82 781.79 143.88 792.39 157.58 C 799.64 167.60 811.20 174.32 823.49 175.70 C 836.32 177.06 850.10 175.42 860.98 167.99 C 872.76 160.31 879.27 146.36 880.22 132.61 C 874.37 132.52 868.53 132.58 862.69 132.56 C 861.22 140.60 859.16 149.27 852.86 154.98 C 845.59 161.37 835.26 161.91 826.06 161.22 C 816.93 160.44 809.06 154.18 804.74 146.32 C 798.18 135.47 797.50 122.37 797.85 110.02 C 797.55 97.69 797.77 84.71 803.70 73.55 C 807.84 65.19 815.73 58.54 825.08 57.02 C 834.41 55.68 845.05 56.20 852.53 62.64 C 858.97 68.49 861.26 77.31 862.69 85.57 C 868.45 85.68 874.21 85.63 879.97 85.62 C 879.84 68.48 869.07 51.46 852.90 45.16 C 839.63 40.33 824.55 40.33 811.42 45.62 Z" />
<path fill="#1e43b3" opacity="1.00" d=" M 29.65 36.03 C 40.92 35.96 52.20 36.02 63.47 36.00 C 63.47 54.59 63.47 73.17 63.47 91.76 C 79.75 91.68 96.03 92.03 112.30 91.58 C 112.11 73.06 112.28 54.53 112.21 36.01 C 123.55 36.07 134.90 35.83 146.24 36.14 C 145.86 39.75 145.73 43.39 145.98 47.02 C 146.50 53.35 145.47 59.67 146.07 66.00 C 145.44 73.33 146.50 80.66 145.84 87.99 C 146.32 119.46 145.52 150.92 146.20 182.39 C 134.87 182.53 123.54 182.44 112.21 182.44 C 112.25 162.49 112.17 142.54 112.25 122.60 C 96.00 122.29 79.74 122.52 63.48 122.48 C 63.46 142.47 63.48 162.46 63.47 182.45 C 52.20 182.46 40.93 182.48 29.65 182.44 C 29.66 133.64 29.66 84.83 29.65 36.03 M 37.53 44.33 C 37.58 87.43 37.45 130.52 37.60 173.61 C 43.56 173.98 49.55 173.96 55.52 173.64 C 55.61 153.66 55.59 133.69 55.53 113.71 C 76.96 113.70 98.38 113.71 119.81 113.70 C 119.55 132.47 119.81 151.24 119.68 170.00 C 119.77 171.21 119.45 173.41 121.06 173.72 C 126.68 174.05 132.33 173.75 137.96 173.81 C 138.21 130.55 138.14 87.27 138.00 44.01 C 131.90 44.08 125.71 43.32 119.69 44.51 C 119.76 62.70 119.63 80.90 119.76 99.10 C 98.36 99.09 76.95 99.13 55.55 99.08 C 55.57 80.79 55.60 62.50 55.54 44.20 C 49.55 43.81 43.50 43.60 37.53 44.33 Z" />
<path fill="#1e43b3" opacity="1.00" d=" M 160.80 36.10 C 172.09 35.88 183.38 36.05 194.67 36.01 C 194.65 84.83 194.69 133.65 194.66 182.46 C 183.37 182.41 172.09 182.53 160.81 182.40 C 160.81 133.63 160.83 84.87 160.80 36.10 M 168.63 44.54 C 168.72 87.49 168.64 130.44 168.67 173.39 C 174.63 174.29 180.71 173.76 186.72 173.70 C 186.93 130.52 186.85 87.33 186.76 44.15 C 180.73 43.97 174.58 43.34 168.63 44.54 Z" />
<path fill="#1e43b3" opacity="1.00" d=" M 209.27 36.01 C 224.52 36.02 239.78 35.94 255.03 36.04 C 269.46 36.24 284.18 40.31 295.52 49.52 C 308.60 59.81 316.38 75.77 318.64 92.06 C 319.87 99.29 319.55 106.65 319.56 113.94 C 319.58 128.55 315.90 143.42 307.67 155.62 C 298.27 169.57 282.61 179.00 265.99 181.26 C 260.73 182.20 255.37 182.49 250.04 182.46 C 236.45 182.44 222.86 182.47 209.27 182.45 C 209.27 133.64 209.27 84.82 209.27 36.01 M 217.26 44.17 C 217.19 87.32 217.22 130.47 217.24 173.62 C 229.14 174.12 241.06 173.70 252.97 173.85 C 269.90 174.30 287.55 167.76 298.42 154.43 C 308.76 141.81 312.18 125.01 311.83 109.03 C 312.21 93.01 308.76 76.21 298.48 63.51 C 288.13 50.55 271.36 43.74 254.96 43.91 C 242.39 44.07 229.81 43.59 217.26 44.17 Z" />
<path fill="#1e43b3" opacity="1.00" d=" M 328.59 36.01 C 346.08 36.01 363.57 35.96 381.06 36.03 C 394.85 36.30 409.50 39.37 419.97 48.93 C 430.09 57.84 434.26 71.84 433.60 85.01 C 433.66 99.97 424.95 114.15 412.18 121.69 C 421.24 137.75 430.07 153.94 438.97 170.08 C 439.93 174.08 439.15 178.34 439.39 182.44 C 428.85 182.48 418.30 182.45 407.76 182.46 C 398.31 165.14 389.20 147.62 379.74 130.31 C 374.03 129.58 368.20 130.16 362.44 130.06 C 362.51 147.52 362.45 164.99 362.47 182.45 C 351.18 182.46 339.89 182.47 328.59 182.44 C 328.60 133.63 328.60 84.82 328.59 36.01 M 336.66 44.20 C 336.52 87.34 336.56 130.48 336.64 173.62 C 342.57 174.03 348.52 173.82 354.45 173.77 C 354.80 156.40 354.55 139.01 354.58 121.63 C 364.65 121.67 374.72 121.60 384.79 121.67 C 393.82 139.02 403.16 156.23 412.49 173.41 C 418.71 174.42 425.16 173.53 431.47 173.89 C 431.24 172.51 430.82 171.16 430.10 169.97 C 420.47 152.58 410.81 135.20 401.20 117.81 C 406.64 115.38 411.98 112.40 416.09 108.01 C 422.44 101.37 426.08 92.19 425.79 82.98 C 426.14 72.06 422.19 60.58 413.50 53.58 C 403.86 45.81 391.05 43.71 378.99 43.90 C 364.88 44.10 350.76 43.55 336.66 44.20 Z" />
<path fill="#1e43b3" opacity="1.00" d=" M 553.32 36.01 C 592.30 36.02 631.28 35.94 670.26 36.05 C 670.26 46.24 670.21 56.43 670.29 66.62 C 656.37 66.91 642.44 66.63 628.52 66.76 C 628.49 105.33 628.52 143.89 628.50 182.46 C 617.25 182.44 605.99 182.50 594.74 182.42 C 594.75 143.87 594.75 105.32 594.75 66.76 C 580.94 66.70 567.14 66.77 553.33 66.73 C 553.31 56.49 553.33 46.25 553.32 36.01 M 561.34 44.08 C 561.34 48.91 561.31 53.75 561.39 58.58 C 575.19 58.74 588.99 58.53 602.79 58.69 C 602.84 95.80 602.85 132.92 602.78 170.03 C 603.03 171.17 602.15 173.81 604.06 173.75 C 609.45 173.66 615.23 174.44 620.41 173.37 C 620.75 135.15 620.51 96.90 620.52 58.67 C 634.32 58.58 648.11 58.68 661.91 58.62 C 662.37 53.76 662.19 48.88 662.08 44.01 C 628.50 43.90 594.91 43.76 561.34 44.08 Z" />
<path fill="#1e43b3" opacity="1.00" d=" M 672.65 36.03 C 705.35 35.96 738.05 36.01 770.75 36.01 C 770.73 46.25 770.76 56.49 770.74 66.73 C 749.34 66.74 727.94 66.75 706.54 66.72 C 706.38 75.07 706.51 83.41 706.47 91.76 C 725.17 91.80 743.87 91.78 762.57 91.77 C 762.63 102.00 762.59 112.23 762.59 122.46 C 743.89 122.47 725.18 122.43 706.48 122.48 C 706.46 132.24 706.47 142.00 706.47 151.76 C 728.21 151.84 749.95 151.71 771.69 151.83 C 771.62 162.04 771.71 172.26 771.64 182.47 C 738.65 182.43 705.65 182.49 672.65 182.44 C 672.66 133.64 672.66 84.83 672.65 36.03 M 680.58 44.26 C 680.53 87.38 680.47 130.50 680.61 173.62 C 708.21 174.16 735.83 173.63 763.44 173.89 C 764.01 169.07 763.66 164.21 763.71 159.38 C 741.99 159.09 720.27 159.36 698.55 159.24 C 698.57 144.07 698.61 128.89 698.53 113.71 C 717.24 113.63 735.95 113.85 754.67 113.60 C 754.72 108.76 754.92 103.91 754.52 99.08 C 735.86 99.11 717.21 99.12 698.55 99.08 C 698.56 85.59 698.60 72.11 698.53 58.62 C 719.91 58.61 741.30 58.71 762.68 58.57 C 762.98 53.77 762.88 48.96 762.81 44.16 C 743.22 43.60 723.60 44.07 704.00 43.91 C 696.19 44.08 688.36 43.53 680.58 44.26 Z" />
<path fill="#1e43b3" opacity="1.00" d=" M 492.24 57.17 C 502.34 55.84 513.57 58.73 520.48 66.55 C 528.75 75.92 531.48 88.81 531.70 100.99 C 531.62 112.74 532.49 124.79 528.85 136.15 C 526.46 143.46 522.67 150.75 516.25 155.30 C 507.79 161.57 496.25 162.37 486.36 159.49 C 475.76 155.98 468.40 146.12 465.26 135.73 C 461.51 124.52 462.61 112.62 462.46 101.01 C 462.57 88.65 465.52 75.45 474.24 66.21 C 478.87 61.10 485.45 58.04 492.24 57.17 M 491.19 66.28 C 483.30 67.69 477.30 74.04 474.30 81.18 C 469.34 92.11 470.24 104.37 470.25 116.05 C 470.35 125.97 472.23 136.54 478.60 144.47 C 487.54 155.87 507.56 155.96 516.10 144.01 C 523.40 133.60 523.79 120.26 523.62 108.01 C 523.80 96.01 522.75 82.87 514.86 73.20 C 509.13 66.45 499.54 64.82 491.19 66.28 Z" />
<path fill="#1e43b3" opacity="1.00" d=" M 235.19 58.63 C 244.76 58.93 254.42 57.91 263.92 59.41 C 273.99 61.20 283.24 67.68 287.99 76.80 C 291.72 83.93 293.76 91.98 293.71 100.03 C 294.11 104.04 294.82 108.06 294.30 112.10 C 293.28 117.70 294.09 123.52 292.31 129.00 C 289.99 139.91 283.12 150.07 272.93 155.01 C 261.32 161.17 247.80 158.78 235.22 159.25 C 235.34 125.71 235.41 92.17 235.19 58.63 M 242.87 67.68 C 242.84 85.78 242.84 103.89 242.83 122.00 C 243.44 131.90 242.44 141.81 242.91 151.73 C 251.27 151.68 260.14 152.56 267.91 148.81 C 275.61 145.75 281.03 138.59 283.46 130.84 C 286.68 121.55 285.71 111.58 285.81 101.93 C 285.67 90.92 282.40 78.68 272.95 72.02 C 264.47 66.00 253.52 66.66 243.63 66.79 C 243.44 67.01 243.06 67.45 242.87 67.68 Z" />
<path fill="#1e43b3" opacity="1.00" d=" M 354.58 58.63 C 364.05 58.68 373.52 58.56 382.99 58.67 C 391.50 58.80 400.88 62.22 405.06 70.14 C 408.31 75.52 407.72 82.01 407.51 88.02 C 406.59 94.56 402.15 100.34 396.36 103.41 C 391.07 106.28 384.92 107.06 378.97 106.94 C 370.84 106.91 362.71 106.92 354.57 106.94 C 354.64 90.83 354.63 74.73 354.58 58.63 M 362.55 99.28 C 369.35 99.18 376.16 99.39 382.97 99.18 C 388.64 99.06 394.73 96.65 397.67 91.54 C 400.02 88.15 399.90 83.81 399.58 79.87 C 399.14 74.42 395.18 69.34 389.77 68.12 C 380.92 65.67 371.62 67.18 362.57 66.69 C 362.39 77.55 362.43 88.42 362.55 99.28 Z" />
</g>
<g id="#92e8e4ff">
<path fill="#92e8e4" opacity="1.00" d=" M 489.24 42.14 C 502.07 40.46 515.83 42.85 526.45 50.54 C 538.99 59.31 545.82 74.23 548.12 89.01 C 550.09 98.53 549.20 108.28 549.37 117.92 C 548.69 133.76 543.98 150.13 532.93 161.93 C 514.31 181.06 479.82 181.02 461.42 161.61 C 450.38 150.37 445.73 134.46 444.57 119.11 C 444.02 105.01 444.07 90.50 448.96 77.07 C 452.80 65.31 460.51 54.56 471.32 48.31 C 476.75 44.93 482.98 43.17 489.24 42.14 M 492.24 57.17 C 485.45 58.04 478.87 61.10 474.24 66.21 C 465.52 75.45 462.57 88.65 462.46 101.01 C 462.61 112.62 461.51 124.52 465.26 135.73 C 468.40 146.12 475.76 155.98 486.36 159.49 C 496.25 162.37 507.79 161.57 516.25 155.30 C 522.67 150.75 526.46 143.46 528.85 136.15 C 532.49 124.79 531.62 112.74 531.70 100.99 C 531.48 88.81 528.75 75.92 520.48 66.55 C 513.57 58.73 502.34 55.84 492.24 57.17 Z" />
<path fill="#92e8e4" opacity="1.00" d=" M 811.42 45.62 C 824.55 40.33 839.63 40.33 852.90 45.16 C 869.07 51.46 879.84 68.48 879.97 85.62 C 874.21 85.63 868.45 85.68 862.69 85.57 C 861.26 77.31 858.97 68.49 852.53 62.64 C 845.05 56.20 834.41 55.68 825.08 57.02 C 815.73 58.54 807.84 65.19 803.70 73.55 C 797.77 84.71 797.55 97.69 797.85 110.02 C 797.50 122.37 798.18 135.47 804.74 146.32 C 809.06 154.18 816.93 160.44 826.06 161.22 C 835.26 161.91 845.59 161.37 852.86 154.98 C 859.16 149.27 861.22 140.60 862.69 132.56 C 868.53 132.58 874.37 132.52 880.22 132.61 C 879.27 146.36 872.76 160.31 860.98 167.99 C 850.10 175.42 836.32 177.06 823.49 175.70 C 811.20 174.32 799.64 167.60 792.39 157.58 C 781.79 143.88 779.41 125.82 779.69 108.99 C 779.30 93.75 781.42 77.76 789.60 64.57 C 794.64 56.14 802.42 49.51 811.42 45.62 Z" />
<path fill="#92e8e4" opacity="1.00" d=" M 37.53 44.33 C 43.50 43.60 49.55 43.81 55.54 44.20 C 55.60 62.50 55.57 80.79 55.55 99.08 C 76.95 99.13 98.36 99.09 119.76 99.10 C 119.63 80.90 119.76 62.70 119.69 44.51 C 125.71 43.32 131.90 44.08 138.00 44.01 C 138.14 87.27 138.21 130.55 137.96 173.81 C 132.33 173.75 126.68 174.05 121.06 173.72 C 119.45 173.41 119.77 171.21 119.68 170.00 C 119.81 151.24 119.55 132.47 119.81 113.70 C 98.38 113.71 76.96 113.70 55.53 113.71 C 55.59 133.69 55.61 153.66 55.52 173.64 C 49.55 173.96 43.56 173.98 37.60 173.61 C 37.45 130.52 37.58 87.43 37.53 44.33 Z" />
<path fill="#92e8e4" opacity="1.00" d=" M 168.63 44.54 C 174.58 43.34 180.73 43.97 186.76 44.15 C 186.85 87.33 186.93 130.52 186.72 173.70 C 180.71 173.76 174.63 174.29 168.67 173.39 C 168.64 130.44 168.72 87.49 168.63 44.54 Z" />
<path fill="#92e8e4" opacity="1.00" d=" M 217.26 44.17 C 229.81 43.59 242.39 44.07 254.96 43.91 C 271.36 43.74 288.13 50.55 298.48 63.51 C 308.76 76.21 312.21 93.01 311.83 109.03 C 312.18 125.01 308.76 141.81 298.42 154.43 C 287.55 167.76 269.90 174.30 252.97 173.85 C 241.06 173.70 229.14 174.12 217.24 173.62 C 217.22 130.47 217.19 87.32 217.26 44.17 M 235.19 58.63 C 235.41 92.17 235.34 125.71 235.22 159.25 C 247.80 158.78 261.32 161.17 272.93 155.01 C 283.12 150.07 289.99 139.91 292.31 129.00 C 294.09 123.52 293.28 117.70 294.30 112.10 C 294.82 108.06 294.11 104.04 293.71 100.03 C 293.76 91.98 291.72 83.93 287.99 76.80 C 283.24 67.68 273.99 61.20 263.92 59.41 C 254.42 57.91 244.76 58.93 235.19 58.63 Z" />
<path fill="#92e8e4" opacity="1.00" d=" M 336.66 44.20 C 350.76 43.55 364.88 44.10 378.99 43.90 C 391.05 43.71 403.86 45.81 413.50 53.58 C 422.19 60.58 426.14 72.06 425.79 82.98 C 426.08 92.19 422.44 101.37 416.09 108.01 C 411.98 112.40 406.64 115.38 401.20 117.81 C 410.81 135.20 420.47 152.58 430.10 169.97 C 430.82 171.16 431.24 172.51 431.47 173.89 C 425.16 173.53 418.71 174.42 412.49 173.41 C 403.16 156.23 393.82 139.02 384.79 121.67 C 374.72 121.60 364.65 121.67 354.58 121.63 C 354.55 139.01 354.80 156.40 354.45 173.77 C 348.52 173.82 342.57 174.03 336.64 173.62 C 336.56 130.48 336.52 87.34 336.66 44.20 M 354.58 58.63 C 354.63 74.73 354.64 90.83 354.57 106.94 C 362.71 106.92 370.84 106.91 378.97 106.94 C 384.92 107.06 391.07 106.28 396.36 103.41 C 402.15 100.34 406.59 94.56 407.51 88.02 C 407.72 82.01 408.31 75.52 405.06 70.14 C 400.88 62.22 391.50 58.80 382.99 58.67 C 373.52 58.56 364.05 58.68 354.58 58.63 Z" />
<path fill="#92e8e4" opacity="1.00" d=" M 561.34 44.08 C 594.91 43.76 628.50 43.90 662.08 44.01 C 662.19 48.88 662.37 53.76 661.91 58.62 C 648.11 58.68 634.32 58.58 620.52 58.67 C 620.51 96.90 620.75 135.15 620.41 173.37 C 615.23 174.44 609.45 173.66 604.06 173.75 C 602.15 173.81 603.03 171.17 602.78 170.03 C 602.85 132.92 602.84 95.80 602.79 58.69 C 588.99 58.53 575.19 58.74 561.39 58.58 C 561.31 53.75 561.34 48.91 561.34 44.08 Z" />
<path fill="#92e8e4" opacity="1.00" d=" M 680.58 44.26 C 688.36 43.53 696.19 44.08 704.00 43.91 C 723.60 44.07 743.22 43.60 762.81 44.16 C 762.88 48.96 762.98 53.77 762.68 58.57 C 741.30 58.71 719.91 58.61 698.53 58.62 C 698.60 72.11 698.56 85.59 698.55 99.08 C 717.21 99.12 735.86 99.11 754.52 99.08 C 754.92 103.91 754.72 108.76 754.67 113.60 C 735.95 113.85 717.24 113.63 698.53 113.71 C 698.61 128.89 698.57 144.07 698.55 159.24 C 720.27 159.36 741.99 159.09 763.71 159.38 C 763.66 164.21 764.01 169.07 763.44 173.89 C 735.83 173.63 708.21 174.16 680.61 173.62 C 680.47 130.50 680.53 87.38 680.58 44.26 Z" />
</g>
</svg>
