<?xml version="1.0" encoding="utf-8"?>
<svg viewBox="0 0 500 500" xmlns="http://www.w3.org/2000/svg">
  <g id="#ffffffff" transform="matrix(1.655837, 0, 0, 1.655837, -238.344406, -38.642403)" style=""/>
  <g id="#c4090bff" transform="matrix(1.655837, 0, 0, 1.655837, -238.344406, -38.642403)" style="">
    <path opacity="1.00" d=" M 337.33 88.37 C 358.17 76.55 381.78 68.01 406.05 69.23 C 418.29 69.51 432.10 72.90 439.34 83.64 C 446.36 94.50 444.79 108.59 440.64 120.22 C 439.89 109.80 435.47 99.40 427.01 92.96 C 413.98 82.94 396.59 81.51 380.75 82.63 C 356.99 85.24 334.83 95.47 314.45 107.48 C 308.01 111.19 301.87 115.39 295.76 119.61 C 308.20 107.47 322.32 97.09 337.33 88.37 Z" style="fill: rgb(26, 28, 43);"/>
    <path opacity="1.00" d=" M 180.22 123.23 C 194.29 122.46 208.41 122.98 222.50 122.92 C 218.43 148.24 213.63 173.45 209.30 198.74 C 205.52 219.31 202.21 239.96 198.24 260.49 C 184.13 260.33 170.01 260.57 155.90 260.36 C 163.86 214.63 172.14 168.94 180.22 123.23 Z" style="fill: rgb(26, 28, 43);"/>
    <path opacity="1.00" d=" M 272.55 131.43 C 294.85 123.92 318.67 122.78 342.01 123.23 C 361.49 123.77 381.68 126.27 398.95 135.90 C 395.85 151.62 388.61 166.15 380.49 179.83 C 379.25 174.49 376.74 169.07 371.96 166.03 C 363.13 160.33 352.26 159.59 342.04 159.23 C 332.03 158.50 321.98 158.61 311.96 159.24 C 300.11 159.71 287.69 160.30 276.94 165.86 C 270.26 169.19 265.80 175.88 264.25 183.07 C 262.55 191.25 261.88 199.72 262.74 208.04 C 263.58 215.35 268.68 221.77 275.45 224.53 C 283.85 227.96 293.03 228.55 302.00 228.85 C 314.76 229.98 327.53 228.72 340.29 228.56 C 327.29 240.73 313.18 251.78 297.81 260.82 C 294.78 262.46 291.73 265.08 288.04 264.15 C 270.57 262.30 252.29 258.90 237.95 248.08 C 226.92 239.94 220.75 226.50 219.85 213.01 C 218.66 194.55 221.75 175.00 232.46 159.52 C 241.91 145.71 256.88 136.62 272.55 131.43 Z" style="fill: rgb(26, 28, 43);"/>
  </g>
  <g id="#1a1c2bff" transform="matrix(1.655837, 0, 0, 1.655837, -238.344406, -38.642403)" style="">
    <path fill="#1a1c2b" opacity="1.00" d=" M 372.83 94.49 C 385.06 91.69 398.40 90.76 410.24 95.64 C 419.11 99.21 426.06 106.95 428.87 116.07 C 433.22 129.74 431.00 144.50 427.08 158.00 C 425.92 162.42 423.88 166.57 422.85 171.02 C 424.81 190.72 421.97 211.86 410.54 228.47 C 399.39 244.79 380.86 254.35 362.09 259.03 C 357.28 259.74 354.49 264.05 350.94 266.88 C 328.73 286.15 303.91 303.16 275.99 312.95 C 262.14 317.65 247.09 320.72 232.54 317.67 C 222.84 315.69 213.81 309.64 209.29 300.69 C 203.25 288.97 203.76 275.13 206.33 262.54 C 208.05 254.55 210.36 246.61 213.80 239.17 C 215.07 241.27 217.19 243.30 216.58 246.01 C 215.74 255.77 217.20 266.49 223.84 274.13 C 229.50 280.87 238.44 283.81 247.00 284.19 C 261.38 284.79 275.38 280.17 288.34 274.35 C 316.36 261.23 340.70 241.21 361.31 218.33 C 375.20 202.64 387.50 185.35 396.26 166.26 C 402.36 152.59 407.15 137.69 405.69 122.54 C 404.82 113.50 400.42 104.31 392.34 99.64 C 386.54 95.88 379.55 95.08 372.83 94.49 Z"/>
  </g>
</svg>