<?xml version="1.0" encoding="UTF-8" ?>
<!DOCTYPE svg PUBLIC "-//W3C//DTD SVG 1.1//EN" "http://www.w3.org/Graphics/SVG/1.1/DTD/svg11.dtd">
<svg width="530pt" height="382pt" viewBox="0 0 530 382" version="1.1" xmlns="http://www.w3.org/2000/svg">
<g id="#cc3939ff">
<path fill="#cc3939" opacity="1.00" d=" M 354.33 5.35 C 356.74 5.19 359.16 5.04 361.59 5.06 C 362.31 8.27 363.16 11.46 364.17 14.59 C 367.25 14.83 370.31 15.31 373.25 16.25 C 375.33 13.62 377.29 10.90 379.20 8.15 C 381.43 9.11 383.63 10.15 385.80 11.24 C 384.93 14.47 384.08 17.71 383.27 20.95 C 385.86 22.73 388.27 24.77 390.43 27.06 C 393.52 25.74 396.60 24.36 399.69 23.02 C 401.00 25.00 402.34 26.95 403.71 28.89 C 401.32 31.24 399.01 33.68 396.76 36.16 C 397.97 39.05 399.01 42.02 399.86 45.04 C 403.18 45.42 406.50 45.76 409.83 46.16 C 409.99 48.53 410.14 50.89 410.34 53.25 C 408.39 53.81 406.45 54.34 404.51 54.88 C 401.35 52.85 397.67 51.81 393.94 51.61 C 393.20 44.76 390.77 38.03 386.22 32.77 C 378.83 23.86 366.33 19.45 355.01 22.07 C 346.13 23.82 338.44 29.70 333.78 37.37 C 333.61 37.58 333.26 38.00 333.09 38.21 C 330.38 38.36 327.64 38.43 324.99 39.10 L 323.97 39.28 C 321.43 38.09 319.00 36.67 316.39 35.65 C 317.36 33.60 318.33 31.55 319.25 29.48 C 322.53 30.16 325.75 31.06 328.97 31.99 C 330.85 29.42 332.88 26.96 335.13 24.70 C 333.88 21.65 332.54 18.64 331.14 15.65 C 333.09 14.22 335.07 12.83 337.07 11.46 C 339.44 13.81 341.80 16.16 344.13 18.55 C 347.07 17.24 350.09 16.14 353.20 15.31 C 353.52 11.98 353.89 8.66 354.33 5.35 Z" />
<path fill="#cc3939" opacity="1.00" d=" M 383.48 92.77 C 385.69 92.77 387.90 92.75 390.12 92.76 C 388.91 93.73 387.69 94.70 386.49 95.67 C 385.47 94.71 384.47 93.74 383.48 92.77 Z" />
<path fill="#cc3939" opacity="1.00" d=" M 367.20 92.78 C 367.91 92.78 369.33 92.76 370.04 92.75 C 369.72 95.74 369.41 98.73 369.03 101.71 C 367.56 101.80 366.09 101.89 364.63 101.99 C 365.97 99.08 366.65 95.93 367.20 92.78 Z" />
<path fill="#cc3939" opacity="1.00" d=" M 481.47 92.67 C 483.49 92.72 485.50 92.75 487.53 92.79 C 488.06 95.46 488.64 98.13 489.17 100.81 C 491.79 101.29 494.38 101.92 496.94 102.71 C 498.70 100.54 500.47 98.38 502.26 96.23 C 504.09 97.23 505.91 98.24 507.67 99.35 C 506.73 101.91 505.86 104.49 504.99 107.07 C 506.99 108.85 508.90 110.73 510.77 112.67 C 513.42 111.88 515.95 110.16 518.73 110.09 C 519.88 111.62 520.77 113.32 521.76 114.95 C 519.67 116.83 517.58 118.70 515.53 120.60 C 516.45 123.08 517.13 125.65 517.77 128.22 C 520.53 128.66 523.30 129.12 526.06 129.64 C 526.01 131.67 525.97 133.71 525.91 135.75 C 523.26 136.28 520.60 136.80 517.96 137.33 C 517.43 139.95 516.81 142.55 516.05 145.11 C 518.21 146.93 520.40 148.72 522.56 150.55 C 521.53 152.29 520.53 154.04 519.56 155.81 C 516.91 154.89 514.24 154.01 511.54 153.25 C 509.91 155.31 507.91 157.03 506.20 159.02 C 506.93 161.68 508.07 164.20 509.04 166.78 C 507.22 167.64 505.55 169.54 503.51 169.58 C 501.61 167.71 499.96 165.60 498.12 163.69 C 496.74 164.17 495.37 164.65 494.00 165.12 C 494.01 163.06 494.10 161.01 494.17 158.95 C 507.73 154.52 515.81 138.35 510.87 124.89 C 506.56 111.21 490.37 102.89 476.80 107.84 C 463.25 112.04 455.04 127.79 459.37 141.31 C 457.42 141.43 455.58 142.12 454.20 143.53 C 453.66 141.90 453.16 140.26 452.65 138.62 C 449.91 138.24 447.19 137.79 444.47 137.32 C 444.48 135.26 444.52 133.21 444.58 131.16 C 447.27 130.68 449.96 130.15 452.63 129.54 C 453.10 126.95 453.69 124.37 454.54 121.88 C 452.40 120.06 450.25 118.28 448.08 116.51 C 449.02 114.70 450.00 112.91 450.99 111.13 C 453.62 112.01 456.26 112.89 458.90 113.74 C 460.65 111.71 462.53 109.80 464.48 107.96 C 463.49 105.32 462.50 102.69 461.54 100.05 C 463.29 99.03 465.03 98.00 466.77 96.96 C 468.60 98.93 470.25 101.07 472.20 102.92 C 474.84 102.78 477.36 101.40 480.02 101.02 C 480.49 98.23 480.94 95.45 481.47 92.67 Z" />
<path fill="#cc3939" opacity="1.00" d=" M 372.00 94.85 C 375.01 94.32 378.01 93.73 381.02 93.18 C 382.57 97.22 384.18 101.23 385.79 105.24 C 389.90 105.14 394.01 105.47 398.07 106.13 C 400.18 102.39 402.41 98.71 404.38 94.89 C 407.40 95.71 410.33 96.81 413.29 97.83 C 412.70 102.04 412.15 106.26 411.34 110.44 C 414.83 112.76 418.49 114.85 421.65 117.65 C 425.43 115.43 429.18 113.18 433.01 111.07 C 434.95 113.44 436.97 115.75 439.03 118.03 C 436.35 121.45 433.69 124.88 430.93 128.24 C 433.10 131.81 434.95 135.57 436.39 139.51 C 440.72 139.57 445.04 139.42 449.37 139.24 C 449.76 141.47 450.14 143.70 450.49 145.94 C 443.36 146.06 436.23 145.98 429.10 145.99 C 425.23 130.14 411.68 117.49 395.64 114.58 C 395.27 117.60 395.05 120.64 394.95 123.68 C 404.47 125.70 412.99 131.95 417.45 140.64 C 419.91 144.95 420.40 149.96 421.69 154.67 C 421.75 157.04 421.71 159.40 421.68 161.77 C 419.95 163.32 419.68 165.74 418.87 167.79 C 418.35 168.85 417.84 169.90 417.36 170.98 C 415.58 174.86 412.68 178.02 409.74 181.05 C 409.82 176.12 409.57 171.17 409.96 166.25 C 415.74 156.08 411.60 142.19 401.99 135.88 C 393.49 129.84 381.04 130.40 373.10 137.15 C 366.38 142.46 363.25 151.36 364.40 159.75 C 361.66 159.76 358.92 159.73 356.19 159.71 C 355.98 159.27 355.57 158.38 355.36 157.93 C 352.46 157.30 349.47 157.36 346.53 157.16 C 346.61 157.81 346.76 159.11 346.84 159.77 C 343.11 159.83 339.40 159.66 335.68 159.58 C 336.18 159.26 337.19 158.60 337.70 158.27 C 337.72 153.95 338.23 149.66 338.48 145.36 C 341.63 145.37 344.78 145.26 347.94 145.25 C 347.68 146.40 347.42 147.55 347.16 148.70 C 350.16 148.96 353.18 149.18 356.19 149.35 C 356.56 147.99 356.94 146.64 357.33 145.29 C 358.65 145.07 360.37 145.63 361.43 144.63 C 361.74 142.11 361.54 139.56 361.51 137.03 C 367.17 128.91 376.57 123.70 386.45 123.12 C 386.71 120.07 386.93 117.02 387.11 113.96 C 377.85 114.40 368.95 117.88 361.66 123.56 C 358.00 121.95 353.96 122.63 350.10 122.52 C 347.86 118.60 345.46 114.78 343.44 110.75 C 347.66 110.75 352.01 111.07 356.10 109.75 C 357.70 110.89 359.27 112.09 360.83 113.30 C 364.35 111.11 368.11 109.35 372.00 107.91 C 372.00 103.55 371.99 99.20 372.00 94.85 Z" />
<path fill="#cc3939" opacity="1.00" d=" M 410.40 191.38 C 413.12 189.59 415.65 187.54 418.15 185.45 C 418.12 190.16 417.96 194.86 418.06 199.56 C 415.32 197.45 412.79 200.71 410.17 201.43 C 409.64 198.10 409.26 194.64 410.40 191.38 Z" />
<path fill="#cc3939" opacity="1.00" d=" M 61.25 281.29 C 61.26 278.76 61.29 276.24 61.26 273.72 C 63.95 274.08 66.64 274.49 69.31 275.01 C 68.67 277.45 67.99 279.88 67.30 282.32 C 65.29 281.94 63.27 281.59 61.25 281.29 Z" />
<path fill="#cc3939" opacity="1.00" d=" M 6.68 313.52 C 11.04 293.78 28.03 277.63 48.01 274.41 C 48.01 276.94 48.03 279.48 48.01 282.02 C 35.26 284.79 23.83 293.27 17.88 304.93 C 11.89 316.21 11.20 330.14 16.12 341.94 C 21.73 355.96 34.99 366.60 49.93 368.92 C 62.36 371.07 75.58 367.39 85.22 359.30 C 95.32 351.07 101.20 338.23 101.34 325.24 C 103.83 325.25 106.32 325.25 108.82 325.27 C 108.72 337.86 104.11 350.40 95.64 359.77 C 84.89 371.97 68.12 378.52 51.95 376.76 C 38.84 375.57 26.35 369.06 17.82 359.05 C 7.08 346.81 2.94 329.33 6.68 313.52 Z" />
<path fill="#cc3939" opacity="1.00" d=" M 41.50 288.01 C 42.93 287.32 44.47 290.61 42.89 291.14 C 41.66 290.83 40.97 289.12 41.50 288.01 Z" />
<path fill="#cc3939" opacity="1.00" d=" M 36.27 290.33 C 38.70 290.27 39.00 293.32 39.91 295.00 C 37.68 294.59 37.26 292.01 36.27 290.33 Z" />
<path fill="#cc3939" opacity="1.00" d=" M 54.65 290.98 L 54.99 290.98 C 56.43 290.98 57.86 291.00 59.30 291.03 C 59.27 291.53 59.21 292.52 59.19 293.02 C 57.72 293.00 56.26 293.00 54.80 292.99 C 54.76 292.49 54.69 291.48 54.65 290.98 Z" />
<path fill="#cc3939" opacity="1.00" d=" M 76.16 291.02 C 76.52 291.01 77.26 291.00 77.63 290.99 C 76.59 292.43 76.17 294.81 74.06 294.95 C 74.68 293.59 75.31 292.24 76.16 291.02 Z" />
<path fill="#cc3939" opacity="1.00" d=" M 92.80 291.01 C 93.78 291.00 94.76 290.99 95.74 290.99 C 97.77 293.35 99.74 295.80 101.17 298.58 C 99.13 299.68 97.17 300.96 95.05 301.92 C 92.64 300.11 91.30 297.00 89.10 294.85 C 90.33 293.57 91.57 292.29 92.80 291.01 Z" />
<path fill="#cc3939" opacity="1.00" d=" M 32.48 293.15 C 33.85 292.45 35.40 294.57 34.85 295.82 C 33.58 296.28 31.97 294.35 32.48 293.15 Z" />
<path fill="#cc3939" opacity="1.00" d=" M 80.49 293.27 C 83.08 292.13 81.03 296.93 79.35 295.98 C 79.09 294.86 79.47 293.96 80.49 293.27 Z" />
<path fill="#cc3939" opacity="1.00" d=" M 28.40 296.49 C 29.72 295.81 31.50 297.81 30.94 299.10 C 29.57 300.02 27.43 297.82 28.40 296.49 Z" />
<path fill="#cc3939" opacity="1.00" d=" M 25.23 300.27 C 26.49 299.55 28.92 301.14 28.08 302.60 C 26.80 303.36 24.59 301.68 25.23 300.27 Z" />
<path fill="#cc3939" opacity="1.00" d=" M 95.91 304.22 C 98.08 302.96 100.25 301.70 102.42 300.44 C 104.18 303.68 105.49 307.12 106.78 310.56 C 104.40 311.46 101.94 312.12 99.48 312.80 C 98.47 309.86 97.27 307.00 95.91 304.22 Z" />
<path fill="#cc3939" opacity="1.00" d=" M 56.97 304.05 C 58.13 309.27 58.12 314.67 58.82 319.96 C 59.39 320.30 60.53 320.97 61.10 321.31 C 69.13 317.59 76.75 312.86 85.12 309.99 C 78.10 314.74 71.01 319.38 63.97 324.10 C 61.84 325.21 62.53 328.32 60.54 329.60 C 58.97 331.11 56.69 330.70 54.72 330.61 C 50.05 338.31 45.77 346.24 41.12 353.95 L 40.11 352.75 C 44.32 345.01 48.89 337.47 53.23 329.80 C 52.31 328.04 50.98 326.17 51.62 324.08 C 51.98 321.98 54.05 320.97 55.26 319.43 C 56.05 314.33 56.10 309.14 56.97 304.05 Z" />
<path fill="#cc3939" opacity="1.00" d=" M 21.73 304.53 C 23.66 305.25 25.45 306.28 27.13 307.47 C 24.98 308.35 22.50 306.49 21.73 304.53 Z" />
<path fill="#cc3939" opacity="1.00" d=" M 87.08 307.96 C 88.41 306.26 90.29 305.20 92.34 304.61 C 91.61 306.81 89.17 307.67 87.08 307.96 Z" />
<path fill="#cc3939" opacity="1.00" d=" M 19.82 309.46 C 20.97 308.85 22.90 309.58 22.98 310.99 C 22.34 312.64 18.65 311.01 19.82 309.46 Z" />
<path fill="#cc3939" opacity="1.00" d=" M 92.36 309.10 C 94.31 307.86 94.87 310.64 92.85 310.93 C 90.89 312.15 90.31 309.36 92.36 309.10 Z" />
<path fill="#cc3939" opacity="1.00" d=" M 100.06 315.00 C 102.49 314.32 104.94 313.69 107.41 313.19 C 108.11 316.76 108.56 320.38 108.77 324.02 C 106.28 324.01 103.79 323.99 101.30 323.97 C 101.04 320.96 100.65 317.96 100.06 315.00 Z" />
<path fill="#cc3939" opacity="1.00" d=" M 18.18 314.50 C 19.13 313.76 21.71 314.53 20.98 315.98 C 20.04 316.94 17.33 315.96 18.18 314.50 Z" />
<path fill="#cc3939" opacity="1.00" d=" M 94.27 314.30 C 98.38 313.54 93.58 318.60 92.89 315.35 C 93.24 315.09 93.93 314.56 94.27 314.30 Z" />
<path fill="#cc3939" opacity="1.00" d=" M 17.05 319.68 C 17.29 318.09 20.13 318.52 20.38 319.94 C 19.88 321.27 17.52 320.85 17.05 319.68 Z" />
<path fill="#cc3939" opacity="1.00" d=" M 93.59 319.92 C 94.00 318.40 96.97 318.13 97.27 319.84 C 96.73 321.14 94.02 321.41 93.59 319.92 Z" />
<path fill="#cc3939" opacity="1.00" d=" M 16.69 327.69 C 16.72 326.12 16.75 324.56 16.78 323.00 C 19.45 322.99 22.11 323.00 24.78 323.04 C 24.76 324.60 24.75 326.17 24.74 327.75 C 22.05 327.76 19.37 327.75 16.69 327.69 Z" />
<path fill="#cc3939" opacity="1.00" d=" M 89.22 323.04 C 91.87 323.00 94.53 322.99 97.19 322.97 C 97.23 324.55 97.27 326.12 97.31 327.71 C 94.63 327.75 91.95 327.75 89.27 327.75 C 89.25 326.18 89.23 324.61 89.22 323.04 Z" />
<path fill="#cc3939" opacity="1.00" d=" M 17.23 330.32 C 18.06 329.16 20.66 329.14 20.77 330.85 C 20.35 332.41 16.09 332.40 17.23 330.32 Z" />
<path fill="#cc3939" opacity="1.00" d=" M 93.61 330.82 C 93.78 329.05 96.90 329.30 97.04 330.98 C 96.68 332.52 94.02 332.17 93.61 330.82 Z" />
<path fill="#cc3939" opacity="1.00" d=" M 18.21 335.92 C 17.88 334.59 20.11 334.02 21.02 334.62 C 21.48 335.96 19.09 336.72 18.21 335.92 Z" />
<path fill="#cc3939" opacity="1.00" d=" M 93.08 334.58 C 93.98 334.00 96.19 334.60 95.83 335.92 C 94.94 336.75 92.57 335.92 93.08 334.58 Z" />
<path fill="#cc3939" opacity="1.00" d=" M 22.33 339.46 C 24.65 340.30 20.34 343.08 19.87 341.09 C 20.32 340.01 21.14 339.47 22.33 339.46 Z" />
<path fill="#cc3939" opacity="1.00" d=" M 91.22 339.33 C 92.25 338.60 94.76 339.59 94.07 341.03 C 93.02 341.86 90.57 340.73 91.22 339.33 Z" />
<path fill="#cc3939" opacity="1.00" d=" M 21.77 346.08 C 22.31 344.29 25.37 341.59 27.00 343.41 C 25.32 344.42 23.59 345.36 21.77 346.08 Z" />
<path fill="#cc3939" opacity="1.00" d=" M 86.96 342.99 C 89.18 342.25 91.63 344.06 92.26 346.17 C 90.36 345.34 88.56 344.30 86.96 342.99 Z" />
<path fill="#cc3939" opacity="1.00" d=" M 86.21 348.07 C 87.45 347.51 89.49 349.13 88.80 350.46 C 87.59 351.01 85.68 349.33 86.21 348.07 Z" />
<path fill="#cc3939" opacity="1.00" d=" M 83.21 351.38 C 84.45 350.89 86.20 352.62 85.69 353.86 C 84.41 354.51 82.51 352.66 83.21 351.38 Z" />
<path fill="#cc3939" opacity="1.00" d=" M 33.32 354.83 C 35.94 353.61 34.78 357.92 32.88 357.79 C 31.44 357.42 32.47 355.33 33.32 354.83 Z" />
<path fill="#cc3939" opacity="1.00" d=" M 79.27 354.85 C 80.71 354.08 82.36 356.39 81.59 357.65 C 80.18 358.39 78.48 356.11 79.27 354.85 Z" />
<path fill="#cc3939" opacity="1.00" d=" M 36.41 359.77 C 37.46 358.42 37.81 355.73 40.02 355.94 C 39.21 357.52 38.31 359.05 37.42 360.59 C 37.17 360.39 36.67 359.97 36.41 359.77 Z" />
<path fill="#cc3939" opacity="1.00" d=" M 74.07 355.71 C 76.11 356.09 76.72 358.25 77.73 359.77 C 77.44 359.97 76.84 360.36 76.54 360.56 C 75.69 358.95 74.84 357.35 74.07 355.71 Z" />
<path fill="#cc3939" opacity="1.00" d=" M 54.75 357.75 C 56.25 357.75 57.75 357.75 59.25 357.75 C 59.25 360.33 59.25 362.91 59.25 365.50 C 57.75 365.49 56.25 365.49 54.75 365.49 C 54.75 362.91 54.75 360.33 54.75 357.75 Z" />
<path fill="#cc3939" opacity="1.00" d=" M 42.44 359.37 C 44.60 359.28 43.19 363.65 41.40 362.77 C 40.81 361.65 41.42 360.04 42.44 359.37 Z" />
<path fill="#cc3939" opacity="1.00" d=" M 70.96 359.41 C 72.48 359.17 73.29 361.65 72.59 362.76 C 70.94 363.40 69.82 360.44 70.96 359.41 Z" />
<path fill="#cc3939" opacity="1.00" d=" M 66.18 361.22 C 67.70 360.37 68.95 362.99 67.98 364.10 C 66.48 365.05 65.12 362.27 66.18 361.22 Z" />
<path fill="#cc3939" opacity="1.00" d=" M 51.21 362.16 C 53.47 361.12 52.93 366.03 51.02 365.56 C 50.27 364.39 50.34 363.26 51.21 362.16 Z" />
<path fill="#cc3939" opacity="1.00" d=" M 62.04 362.11 C 63.51 361.36 64.11 363.96 63.40 364.87 C 61.92 365.94 61.01 362.98 62.04 362.11 Z" />
</g>
<g id="#f8e3e3ff">
<path fill="#f8e3e3" opacity="1.00" d=" M 346.84 30.85 C 356.98 24.38 371.50 26.66 379.71 35.27 C 384.39 39.83 386.54 46.36 387.03 52.75 C 389.28 52.09 391.59 51.65 393.94 51.61 C 397.67 51.81 401.35 52.85 404.51 54.88 C 410.43 58.77 412.93 66.17 412.78 73.00 C 412.92 79.00 411.80 85.87 406.76 89.80 C 402.06 93.53 395.71 92.63 390.12 92.76 C 387.90 92.75 385.69 92.77 383.48 92.77 C 379.00 92.74 374.52 92.74 370.04 92.75 C 369.33 92.76 367.91 92.78 367.20 92.78 C 350.16 92.84 333.11 92.82 316.07 92.84 C 309.91 92.54 302.75 92.65 298.15 87.85 C 295.11 85.08 294.67 80.77 294.32 76.92 C 293.79 71.56 296.44 65.88 301.11 63.10 C 304.90 60.54 309.58 60.24 313.99 59.82 C 313.26 55.50 311.90 50.55 314.71 46.67 C 316.86 42.75 320.96 40.62 324.99 39.10 C 327.64 38.43 330.38 38.36 333.09 38.21 C 333.26 38.00 333.61 37.58 333.78 37.37 L 333.15 38.25 C 335.28 38.90 337.39 39.58 339.48 40.36 C 341.14 36.68 343.26 32.97 346.84 30.85 Z" />
<path fill="#f8e3e3" opacity="1.00" d=" M 189.29 106.40 C 191.38 105.07 193.04 108.89 190.64 109.51 C 188.72 110.66 187.23 107.00 189.29 106.40 Z" />
<path fill="#f8e3e3" opacity="1.00" d=" M 277.57 124.99 C 304.79 125.02 332.01 124.99 359.23 125.00 C 359.19 130.93 359.45 136.86 359.06 142.78 C 331.95 142.73 304.83 142.66 277.71 142.82 C 277.29 136.89 277.54 130.93 277.57 124.99 Z" />
<path fill="#f8e3e3" opacity="1.00" d=" M 421.75 146.00 C 424.20 146.00 426.65 145.99 429.10 145.99 C 436.23 145.98 443.36 146.06 450.49 145.94 C 450.79 145.94 451.38 145.94 451.67 145.94 C 455.88 146.00 460.10 146.00 464.32 146.00 C 469.24 146.09 474.17 145.80 479.09 146.12 C 481.91 147.79 484.18 150.23 486.78 152.22 C 489.28 154.42 492.27 156.15 494.17 158.95 C 494.10 161.01 494.01 163.06 494.00 165.12 L 494.00 165.87 C 493.99 167.23 493.99 168.60 494.00 169.96 C 481.99 177.93 470.11 186.12 457.97 193.87 C 445.66 186.35 433.87 177.92 421.78 170.01 C 421.77 168.61 421.75 167.21 421.74 165.81 C 421.71 164.46 421.69 163.12 421.68 161.77 C 421.71 159.40 421.75 157.04 421.69 154.67 C 421.77 151.78 421.76 148.89 421.75 146.00 M 427.20 163.15 C 427.22 163.77 427.25 165.03 427.27 165.65 C 447.63 165.60 468.02 165.97 488.37 165.46 L 488.25 163.73 L 488.23 163.00 C 467.89 163.10 447.54 162.80 427.20 163.15 M 427.34 170.32 C 427.29 170.95 427.20 172.21 427.16 172.84 C 445.77 173.24 464.40 172.85 483.02 173.03 C 484.89 173.00 486.85 173.23 488.62 172.44 L 488.34 170.55 C 468.02 169.97 447.67 170.47 427.34 170.32 Z" />
<path fill="#f8e3e3" opacity="1.00" d=" M 228.76 174.70 C 230.77 174.23 235.24 173.11 234.83 176.53 C 235.43 175.95 236.04 175.38 236.64 174.80 C 237.72 174.56 238.80 174.32 239.88 174.09 C 240.03 177.58 240.11 181.07 239.86 184.56 C 237.36 182.67 239.61 178.97 238.28 176.43 C 237.47 176.65 235.85 177.08 235.04 177.30 C 235.02 179.39 235.83 181.74 234.78 183.70 C 232.84 184.91 230.44 184.05 228.35 183.77 C 228.45 180.77 227.69 177.56 228.76 174.70 M 229.60 175.50 C 229.47 178.01 229.48 180.52 229.65 183.03 C 231.08 182.98 232.51 182.95 233.94 182.92 C 233.98 180.50 233.99 178.09 233.97 175.68 C 232.51 175.62 231.05 175.56 229.60 175.50 Z" />
<path fill="#f8e3e3" opacity="1.00" d=" M 241.80 174.71 C 243.88 174.44 246.16 173.73 248.15 174.78 C 249.34 177.61 248.55 180.80 248.60 183.77 C 246.29 184.32 243.82 184.65 241.66 183.43 C 241.74 180.52 241.75 177.61 241.80 174.71 M 242.99 175.63 C 242.99 178.08 243.02 180.52 243.07 182.97 C 244.48 182.97 245.90 182.98 247.31 183.00 C 247.52 180.52 247.54 178.04 247.37 175.56 C 245.90 175.58 244.44 175.60 242.99 175.63 Z" />
<path fill="#f8e3e3" opacity="1.00" d=" M 254.60 175.65 C 255.67 174.78 257.00 174.42 258.34 174.18 C 258.19 177.27 258.43 180.36 258.21 183.44 C 257.94 183.73 257.41 184.31 257.14 184.60 C 256.97 181.77 256.98 178.92 256.99 176.08 C 256.39 175.97 255.19 175.76 254.60 175.65 Z" />
<path fill="#f8e3e3" opacity="1.00" d=" M 261.40 174.42 C 263.02 174.09 264.73 174.14 266.33 174.58 C 267.51 176.89 266.97 179.66 266.96 182.16 C 267.16 184.84 263.65 184.40 261.92 184.20 C 259.18 184.17 260.20 180.76 259.93 178.98 C 260.16 177.52 259.45 174.86 261.40 174.42 M 261.35 175.59 C 261.22 178.06 261.24 180.54 261.42 183.00 C 262.46 183.01 264.52 183.02 265.55 183.03 C 265.77 180.53 265.78 178.03 265.63 175.54 C 264.56 175.55 262.42 175.58 261.35 175.59 Z" />
<path fill="#f8e3e3" opacity="1.00" d=" M 268.66 175.86 C 269.73 173.11 273.18 174.57 275.39 174.62 C 275.50 177.64 275.53 180.66 275.52 183.69 C 273.37 184.40 271.12 184.31 268.90 184.05 C 268.56 181.34 268.16 178.57 268.66 175.86 M 269.84 175.66 C 269.72 178.09 269.75 180.52 269.90 182.94 C 271.33 182.96 272.77 182.98 274.22 183.01 C 274.26 180.52 274.26 178.03 274.21 175.55 C 272.75 175.59 271.29 175.63 269.84 175.66 Z" />
<path fill="#f8e3e3" opacity="1.00" d=" M 277.37 176.02 C 277.22 174.47 278.83 174.31 279.99 174.25 C 281.49 174.48 284.83 173.44 283.83 176.54 C 284.43 175.96 285.04 175.37 285.64 174.79 C 286.72 174.56 287.81 174.34 288.90 174.12 C 289.02 177.60 289.10 181.09 288.86 184.57 C 286.38 182.67 288.60 178.98 287.28 176.43 C 286.47 176.65 284.84 177.09 284.03 177.30 C 283.80 179.47 285.48 182.85 282.99 184.17 C 281.23 184.32 279.47 184.22 277.71 184.18 C 277.21 181.50 276.99 178.74 277.37 176.02 M 278.59 175.56 C 278.47 178.04 278.49 180.53 278.65 183.02 C 280.07 182.99 281.49 182.96 282.92 182.94 C 282.98 180.50 283.01 178.06 283.00 175.62 C 281.53 175.59 280.05 175.57 278.59 175.56 Z" />
<path fill="#f8e3e3" opacity="1.00" d=" M 292.33 174.37 C 294.01 174.24 296.39 173.69 297.50 175.35 C 297.90 178.01 297.96 180.77 297.49 183.44 C 295.43 185.06 289.92 184.98 290.69 181.14 C 291.06 178.97 289.51 175.26 292.33 174.37 M 291.98 175.66 C 291.99 178.08 292.02 180.50 292.08 182.93 C 293.50 182.96 294.92 182.99 296.35 183.03 C 296.50 180.54 296.51 178.06 296.43 175.57 C 294.94 175.62 293.46 175.65 291.98 175.66 Z" />
<path fill="#f8e3e3" opacity="1.00" d=" M 304.43 175.30 C 305.71 173.54 308.45 174.28 310.32 174.50 C 312.19 177.27 311.00 180.91 310.95 184.03 C 308.74 184.31 306.49 184.34 304.33 183.74 C 304.31 180.93 304.04 178.09 304.43 175.30 M 305.64 175.45 C 305.47 177.98 305.46 180.52 305.65 183.04 C 307.07 182.98 308.49 182.92 309.92 182.87 C 309.97 180.48 310.00 178.10 309.98 175.72 C 308.53 175.63 307.08 175.54 305.64 175.45 Z" />
<path fill="#f8e3e3" opacity="1.00" d=" M 313.11 175.19 C 314.68 173.69 317.39 174.00 319.25 174.73 C 320.30 177.59 319.54 180.83 319.70 183.84 C 317.51 184.30 315.28 184.31 313.07 184.05 C 312.84 181.12 312.27 178.07 313.11 175.19 M 314.02 175.66 C 314.00 178.07 314.02 180.47 314.08 182.88 C 315.51 182.92 316.94 182.96 318.38 183.01 C 318.50 180.51 318.52 178.02 318.42 175.53 C 316.96 175.59 315.49 175.63 314.02 175.66 Z" />
<path fill="#f8e3e3" opacity="1.00" d=" M 326.76 174.89 C 328.23 173.93 330.12 174.39 331.78 174.19 C 332.28 174.63 333.27 175.51 333.76 175.95 C 335.10 175.24 336.46 174.54 337.81 173.84 C 338.05 177.42 338.13 181.01 337.84 184.59 C 335.44 182.52 337.27 178.85 336.83 176.14 C 335.92 176.14 334.11 176.13 333.20 176.13 C 333.21 178.46 333.44 180.80 333.17 183.12 C 331.74 184.95 328.12 184.72 326.51 183.38 C 326.13 180.60 325.83 177.57 326.76 174.89 M 327.59 175.55 C 327.47 178.04 327.50 180.53 327.65 183.02 C 329.06 182.99 330.48 182.97 331.90 182.95 C 331.97 180.52 332.02 178.09 332.04 175.66 C 330.55 175.64 329.07 175.61 327.59 175.55 Z" />
<path fill="#f8e3e3" opacity="1.00" d=" M 345.32 174.34 C 347.28 174.42 349.42 173.87 351.26 174.83 C 351.77 177.75 351.43 180.73 351.53 183.68 C 349.46 184.21 347.26 184.68 345.18 183.92 C 343.96 180.92 344.17 177.34 345.32 174.34 M 345.84 175.66 C 345.73 178.09 345.74 180.52 345.87 182.95 C 347.31 182.97 348.76 182.99 350.21 183.01 C 350.26 180.52 350.26 178.03 350.21 175.54 C 348.75 175.58 347.29 175.62 345.84 175.66 Z" />
<path fill="#f8e3e3" opacity="1.00" d=" M 352.68 175.41 C 353.89 174.97 355.09 174.52 356.34 174.20 C 356.20 177.29 356.43 180.40 356.20 183.48 C 355.93 183.76 355.39 184.32 355.12 184.60 C 354.95 181.82 355.12 179.03 354.89 176.25 C 354.34 176.04 353.24 175.62 352.68 175.41 Z" />
<path fill="#f8e3e3" opacity="1.00" d=" M 358.79 174.72 C 360.69 173.72 363.00 174.28 364.95 174.87 C 365.03 177.92 365.02 180.96 364.87 184.00 C 362.65 184.33 360.40 184.33 358.21 183.78 C 358.26 180.80 357.17 177.40 358.79 174.72 M 359.38 175.62 C 359.23 178.07 359.24 180.53 359.45 182.99 C 360.50 183.00 362.61 183.01 363.66 183.02 C 363.76 180.52 363.75 178.02 363.63 175.53 C 362.57 175.55 360.44 175.59 359.38 175.62 Z" />
<path fill="#f8e3e3" opacity="1.00" d=" M 366.82 175.50 C 368.28 173.34 371.25 174.54 373.40 174.56 C 373.72 177.48 374.04 180.45 373.55 183.37 C 371.74 184.79 366.65 185.23 366.73 181.94 C 366.63 179.79 366.58 177.63 366.82 175.50 M 368.00 175.59 C 367.99 178.04 368.02 180.48 368.08 182.93 C 369.49 182.96 370.91 182.99 372.34 183.04 C 372.50 180.56 372.52 178.08 372.42 175.61 C 370.94 175.62 369.47 175.61 368.00 175.59 Z" />
<path fill="#f8e3e3" opacity="1.00" d=" M 379.67 175.75 C 380.63 174.71 381.99 174.40 383.34 174.20 C 382.64 177.58 384.63 181.89 382.17 184.64 C 381.97 181.81 381.97 178.96 382.00 176.12 C 381.42 176.03 380.25 175.84 379.67 175.75 Z" />
<path fill="#f8e3e3" opacity="1.00" d=" M 385.34 175.30 C 386.49 173.63 388.90 174.28 390.62 174.39 C 392.31 174.51 391.83 176.81 392.05 177.95 C 392.04 179.87 392.20 181.86 391.63 183.71 C 389.70 184.93 387.27 184.02 385.18 183.83 C 385.11 181.00 384.56 178.07 385.34 175.30 M 386.36 175.62 C 386.23 178.08 386.25 180.54 386.41 183.00 C 387.45 183.01 389.52 183.02 390.56 183.03 C 390.74 180.54 390.78 178.04 390.67 175.55 C 389.59 175.57 387.44 175.60 386.36 175.62 Z" />
<path fill="#f8e3e3" opacity="1.00" d=" M 43.94 185.03 C 46.07 183.07 49.21 180.88 52.20 181.63 C 53.37 183.27 54.18 185.13 55.08 186.93 C 57.57 186.77 60.07 186.67 62.57 186.62 C 63.31 184.36 64.29 182.17 65.58 180.16 C 68.22 181.34 71.68 181.49 73.55 183.93 C 73.13 185.97 72.41 187.92 71.75 189.88 C 73.66 191.50 75.50 193.18 77.28 194.93 C 79.41 194.21 81.57 192.39 83.89 192.97 C 85.79 195.18 86.63 198.04 87.26 200.83 C 85.32 201.80 83.38 202.79 81.45 203.77 C 81.59 206.24 81.71 208.71 81.79 211.19 C 83.81 212.05 86.02 212.64 87.76 214.03 C 87.75 216.68 86.73 219.25 85.48 221.56 C 83.27 222.91 80.82 220.85 78.63 220.41 C 76.94 222.31 75.21 224.18 73.45 226.02 C 74.35 227.95 75.37 229.86 75.84 231.96 C 73.95 234.14 70.93 235.52 68.09 235.70 C 66.26 234.58 65.82 232.12 64.80 230.34 C 64.17 230.07 62.93 229.54 62.31 229.27 C 72.99 226.50 76.78 211.50 69.39 203.55 C 69.59 206.69 69.93 209.82 70.23 212.95 C 67.25 215.13 64.30 217.35 61.27 219.47 C 57.87 217.97 54.47 216.49 51.09 214.97 C 50.83 211.34 50.41 207.72 49.93 204.11 C 52.81 202.09 55.65 200.03 58.21 197.62 C 54.25 197.74 50.15 198.47 46.99 201.03 C 40.85 205.50 38.87 214.51 42.32 221.22 C 41.04 223.17 38.40 224.61 36.10 224.22 C 33.94 222.40 33.43 219.29 32.17 216.85 C 34.11 215.50 36.15 214.32 38.24 213.23 C 38.11 210.78 38.03 208.34 37.97 205.89 C 35.97 204.73 32.30 204.84 31.89 202.09 C 32.51 199.65 32.95 196.72 34.97 195.01 C 37.16 195.05 39.18 196.03 41.23 196.67 C 42.87 194.76 44.53 192.86 46.22 190.99 C 45.35 189.05 44.22 187.16 43.94 185.03 M 58.02 200.18 C 52.15 201.29 49.09 209.18 53.15 213.76 C 56.71 218.92 65.58 217.74 67.72 211.86 C 70.57 205.84 64.45 198.46 58.02 200.18 Z" />
<path fill="#f8e3e3" opacity="1.00" d=" M 47.93 235.39 C 45.28 233.27 46.82 230.31 47.84 227.75 C 47.99 230.29 47.98 232.84 47.93 235.39 Z" />
<path fill="#f8e3e3" opacity="1.00" d=" M 17.00 256.66 C 27.33 256.65 37.66 256.65 48.00 256.66 C 48.00 261.35 48.00 266.05 48.00 270.75 C 39.64 270.72 31.29 270.80 22.93 270.72 C 20.21 270.64 17.66 268.59 17.17 265.88 C 16.80 262.82 17.07 259.73 17.00 256.66 Z" />
<path fill="#f8e3e3" opacity="1.00" d=" M 61.89 256.97 C 71.60 256.87 81.32 256.91 91.03 256.96 C 91.01 257.79 90.98 259.46 90.96 260.30 C 88.44 260.42 85.91 260.29 83.41 260.59 C 81.02 260.82 81.03 265.21 83.42 265.37 C 85.90 265.70 88.41 265.58 90.91 265.70 C 90.92 267.20 90.93 268.70 90.94 270.21 C 81.25 270.44 71.55 270.70 61.87 270.36 C 61.80 265.89 61.81 261.43 61.89 256.97 Z" />
<path fill="#f8e3e3" opacity="1.00" d=" M 242.83 277.83 C 265.92 277.82 289.02 277.83 312.11 277.82 C 312.11 279.43 312.11 281.04 312.12 282.65 C 308.81 282.83 305.43 282.36 302.18 283.11 C 299.85 284.35 299.76 287.98 302.09 289.28 C 305.45 289.82 308.86 289.50 312.25 289.60 C 315.78 289.69 319.31 289.68 322.83 289.27 C 319.36 290.14 315.67 289.49 312.12 290.05 C 312.15 292.02 312.19 294.00 312.22 295.99 C 319.15 296.75 326.13 295.76 333.08 296.15 C 333.48 296.22 334.28 296.34 334.68 296.40 L 334.87 296.74 C 327.29 296.65 319.69 296.32 312.12 296.91 C 304.86 296.68 297.59 296.50 290.32 296.48 C 274.47 296.53 258.63 296.48 242.79 296.50 C 242.86 290.28 242.80 284.05 242.83 277.83 Z" />
<path fill="#f8e3e3" opacity="1.00" d=" M 68.70 285.88 C 70.04 285.95 71.38 285.99 72.72 285.99 C 78.75 286.01 84.77 285.99 90.79 286.00 C 90.90 287.68 91.01 289.36 91.13 291.04 C 90.56 291.05 89.42 291.05 88.86 291.05 C 87.68 290.98 86.50 290.96 85.33 290.99 C 82.76 291.03 80.19 290.98 77.63 290.99 C 77.26 291.00 76.52 291.01 76.16 291.02 C 73.48 290.48 69.02 292.45 67.81 289.14 C 68.08 288.04 68.38 286.96 68.70 285.88 Z" />
<path fill="#f8e3e3" opacity="1.00" d=" M 282.41 318.04 C 283.27 316.00 285.89 316.51 287.65 316.48 C 295.79 317.01 303.95 316.42 312.09 316.84 C 312.12 318.89 312.16 320.94 312.19 323.00 C 302.79 322.93 293.38 323.13 283.99 322.91 C 281.96 322.24 282.01 319.74 282.41 318.04 Z" />
</g>
<g id="#f1cbcbff">
<path fill="#f1cbcb" opacity="1.00" d=" M 293.17 36.18 C 300.45 32.94 308.92 33.09 316.39 35.65 C 319.00 36.67 321.43 38.09 323.97 39.28 L 324.99 39.10 C 320.96 40.62 316.86 42.75 314.71 46.67 C 311.90 50.55 313.26 55.50 313.99 59.82 C 309.58 60.24 304.90 60.54 301.11 63.10 C 296.44 65.88 293.79 71.56 294.32 76.92 C 294.67 80.77 295.11 85.08 298.15 87.85 C 302.75 92.65 309.91 92.54 316.07 92.84 C 333.11 92.82 350.16 92.84 367.20 92.78 C 366.65 95.93 365.97 99.08 364.63 101.99 C 362.89 105.54 359.79 108.35 356.10 109.75 C 352.01 111.07 347.66 110.75 343.44 110.75 C 335.47 110.73 327.50 110.77 319.54 110.73 C 318.76 110.73 317.99 110.73 317.23 110.73 C 298.65 110.77 280.08 110.74 261.51 110.75 C 251.26 110.39 238.35 113.00 231.06 103.79 C 227.73 98.39 227.00 91.47 228.57 85.38 C 231.57 75.92 242.62 71.23 251.92 72.83 C 249.35 67.97 248.78 61.85 251.76 57.03 C 257.46 47.21 271.23 44.28 281.03 49.44 C 283.15 43.63 287.43 38.62 293.17 36.18 Z" />
<path fill="#f1cbcb" opacity="1.00" d=" M 91.03 256.96 C 108.02 257.04 125.01 256.94 142.01 257.01 C 141.99 261.60 141.84 266.20 142.28 270.78 C 130.81 270.60 119.32 270.98 107.86 270.59 C 102.26 269.71 96.58 270.06 90.94 270.21 C 90.93 268.70 90.92 267.20 90.91 265.70 C 93.95 265.48 97.78 266.86 100.12 264.28 C 100.12 263.63 100.14 262.34 100.14 261.69 C 97.76 259.19 94.00 260.49 90.96 260.30 C 90.98 259.46 91.01 257.79 91.03 256.96 Z" />
<path fill="#f1cbcb" opacity="1.00" d=" M 149.96 260.83 C 164.22 260.72 178.50 260.47 192.75 260.96 C 192.94 275.83 192.27 290.74 193.13 305.59 C 187.77 308.93 182.49 312.46 176.89 315.37 C 170.19 315.63 163.90 312.35 157.43 310.89 C 156.78 309.47 156.87 307.18 154.93 306.84 C 152.90 306.08 151.41 308.23 149.87 309.17 C 149.98 293.06 149.80 276.94 149.96 260.83 Z" />
<path fill="#f1cbcb" opacity="1.00" d=" M 312.11 277.82 C 344.66 277.82 377.20 277.81 409.75 277.82 C 409.63 281.88 410.03 285.97 409.50 290.00 C 408.72 293.85 404.86 296.60 401.00 296.48 C 392.99 296.55 384.99 296.47 376.99 296.50 C 376.24 296.50 374.75 296.50 374.01 296.50 C 360.90 296.43 347.79 296.63 334.68 296.40 C 334.28 296.34 333.48 296.22 333.08 296.15 C 326.13 295.76 319.15 296.75 312.22 295.99 C 312.19 294.00 312.15 292.02 312.12 290.05 C 315.67 289.49 319.36 290.14 322.83 289.27 C 325.45 288.09 325.08 283.69 322.22 282.90 C 318.87 282.42 315.48 282.60 312.12 282.65 C 312.11 281.04 312.11 279.43 312.11 277.82 Z" />
<path fill="#f1cbcb" opacity="1.00" d=" M 90.79 286.00 C 96.91 285.99 103.02 286.02 109.14 285.97 C 110.61 286.23 112.86 285.35 113.66 287.04 C 113.90 288.47 114.10 290.60 112.21 290.92 C 106.73 291.14 101.23 290.93 95.74 290.99 C 94.76 290.99 93.78 291.00 92.80 291.01 L 91.13 291.04 C 91.01 289.36 90.90 287.68 90.79 286.00 Z" />
<path fill="#f1cbcb" opacity="1.00" d=" M 174.13 317.27 C 175.60 316.02 177.22 318.60 175.73 319.59 C 174.27 320.81 172.63 318.26 174.13 317.27 Z" />
<path fill="#f1cbcb" opacity="1.00" d=" M 312.09 316.84 C 320.51 316.97 328.98 317.41 337.36 316.54 C 338.99 316.59 341.28 315.90 342.28 317.63 C 343.41 319.46 342.75 323.17 340.08 322.99 C 330.78 323.03 321.48 322.98 312.19 323.00 C 312.16 320.94 312.12 318.89 312.09 316.84 Z" />
</g>
<g id="#cd3d3dff">
<path fill="#cd3d3d" opacity="1.00" d=" M 118.74 110.02 C 118.37 106.96 120.69 103.57 123.98 103.77 C 159.67 103.74 195.37 103.72 231.06 103.79 C 238.35 113.00 251.26 110.39 261.51 110.75 C 261.49 127.08 261.49 143.41 261.51 159.75 C 247.93 160.01 234.35 160.08 220.76 159.96 C 231.12 158.96 241.59 159.81 252.00 159.53 C 252.00 148.68 252.00 137.83 252.00 126.98 C 252.00 121.99 252.01 117.00 251.99 112.00 C 210.73 112.03 169.47 111.93 128.21 112.06 C 128.25 117.03 128.24 122.01 128.25 126.98 C 128.25 140.32 128.27 153.66 128.23 167.00 C 125.07 167.00 121.92 167.00 118.76 167.00 C 118.73 148.00 118.77 129.01 118.74 110.02 M 189.29 106.40 C 187.23 107.00 188.72 110.66 190.64 109.51 C 193.04 108.89 191.38 105.07 189.29 106.40 Z" />
<path fill="#cd3d3d" opacity="1.00" d=" M 214.97 173.00 C 214.97 170.19 214.75 167.29 215.74 164.60 C 215.37 177.98 215.76 191.37 215.24 204.75 C 198.41 204.74 181.59 204.74 164.76 204.75 C 164.31 193.45 164.71 182.13 164.19 170.83 L 165.01 170.82 C 165.01 171.66 165.01 173.33 165.01 174.17 C 165.02 175.81 165.01 177.45 165.01 179.09 C 165.00 180.33 165.00 181.56 165.01 182.80 C 165.01 184.47 165.01 186.14 165.02 187.81 C 165.02 188.64 165.02 190.30 165.02 191.13 C 165.01 192.83 165.01 194.53 165.00 196.24 C 181.67 196.26 198.33 196.26 214.99 196.24 C 214.99 188.50 215.03 180.75 214.97 173.00 Z" />
<path fill="#cd3d3d" opacity="1.00" d=" M 221.79 167.03 C 251.94 166.97 282.09 167.00 312.23 167.01 C 312.20 168.42 312.16 169.82 312.13 171.23 C 283.19 171.30 254.25 171.22 225.32 171.27 C 225.21 176.54 225.21 181.81 225.27 187.08 C 254.22 187.54 283.19 187.21 312.15 187.23 C 312.13 189.15 312.11 191.07 312.09 193.00 C 303.07 193.02 294.05 192.94 285.03 193.02 C 285.03 193.57 285.02 194.66 285.01 195.20 C 294.05 195.35 303.10 195.31 312.15 195.22 C 312.12 196.46 312.10 197.71 312.08 198.96 C 302.94 199.06 293.79 198.90 284.64 199.05 C 284.83 199.55 285.20 200.57 285.39 201.08 C 294.53 201.62 303.71 201.17 312.87 201.22 C 312.53 202.47 312.19 203.72 311.85 204.98 C 302.90 205.05 293.95 204.93 285.00 205.04 C 285.00 205.57 285.00 206.63 285.00 207.16 C 294.04 207.39 303.10 207.30 312.15 207.22 C 312.13 208.56 312.12 209.90 312.12 211.25 C 303.11 211.23 294.10 211.27 285.09 211.24 C 285.12 211.84 285.17 213.04 285.20 213.64 C 294.07 213.51 302.94 213.68 311.82 213.53 C 311.90 214.46 312.06 216.32 312.14 217.25 C 303.11 217.26 294.09 217.26 285.07 217.23 C 285.11 217.84 285.19 219.05 285.23 219.66 C 294.10 219.50 302.97 219.68 311.84 219.52 C 311.93 220.45 312.11 222.31 312.20 223.24 C 303.15 223.28 294.11 223.23 285.07 223.24 C 285.13 223.84 285.24 225.04 285.29 225.63 C 294.14 225.52 302.98 225.64 311.82 225.53 C 311.91 226.45 312.09 228.31 312.18 229.23 C 303.14 229.26 294.10 229.25 285.06 229.27 C 285.11 229.86 285.21 231.06 285.27 231.65 C 294.14 231.53 303.01 231.64 311.89 231.51 C 312.00 232.93 312.11 234.36 312.23 235.78 C 303.28 235.85 294.28 235.32 285.35 235.98 C 285.18 236.47 284.83 237.45 284.66 237.95 C 293.71 238.07 302.76 237.94 311.81 238.03 C 312.16 239.27 312.52 240.52 312.87 241.77 C 303.72 241.83 294.53 241.32 285.40 241.96 C 285.20 242.45 284.80 243.44 284.61 243.93 C 293.76 244.17 302.92 243.91 312.07 244.04 C 312.09 245.29 312.11 246.53 312.14 247.78 C 303.08 247.68 294.02 247.61 284.97 247.79 C 284.98 248.34 285.00 249.43 285.01 249.97 C 294.03 250.04 303.05 249.97 312.08 250.02 C 312.09 251.27 312.11 252.52 312.13 253.78 C 303.08 253.72 294.02 253.59 284.97 253.83 C 284.99 254.37 285.02 255.45 285.03 255.99 C 294.04 256.00 303.06 255.99 312.07 256.02 C 312.08 257.34 312.09 258.66 312.11 259.98 C 302.95 260.04 293.80 259.90 284.65 260.07 C 284.83 260.56 285.19 261.53 285.37 262.01 C 294.27 262.70 303.23 262.16 312.15 262.22 C 312.14 263.48 312.12 264.74 312.12 266.00 C 303.08 266.04 294.04 265.92 285.00 266.05 C 285.00 266.58 285.00 267.66 285.00 268.20 C 294.06 268.38 303.12 268.32 312.18 268.22 C 312.18 269.47 312.19 270.73 312.19 271.99 C 289.07 272.02 265.95 271.99 242.83 272.00 C 242.81 271.16 242.77 269.48 242.75 268.64 C 255.11 268.51 267.47 268.57 279.84 268.64 C 279.86 267.17 279.89 265.70 279.94 264.24 C 267.55 264.22 255.15 264.35 242.75 264.19 C 242.70 261.71 242.71 259.22 242.95 256.75 C 255.28 256.74 267.62 256.74 279.95 256.77 C 279.90 255.29 279.86 253.83 279.83 252.36 C 266.91 252.38 253.98 252.51 241.06 252.37 C 234.74 251.27 228.31 251.90 221.93 251.80 C 221.53 223.55 221.80 195.28 221.79 167.03 M 225.21 193.12 C 225.23 194.44 225.24 195.76 225.25 197.09 C 243.48 197.50 261.73 197.29 279.97 197.19 C 279.98 195.80 280.00 194.41 280.03 193.02 C 261.75 193.06 243.48 192.84 225.21 193.12 M 225.18 204.98 C 225.21 206.29 225.23 207.60 225.24 208.91 C 243.48 209.11 261.73 208.95 279.97 208.98 C 279.97 207.59 279.98 206.21 280.01 204.83 C 264.03 204.50 248.04 204.85 232.05 204.67 C 229.76 204.63 227.47 204.77 225.18 204.98 M 225.21 216.93 C 225.21 218.24 225.20 219.56 225.19 220.88 C 243.45 221.16 261.72 220.95 279.99 221.00 C 279.97 219.60 279.96 218.21 279.95 216.81 C 261.71 216.74 243.45 216.46 225.21 216.93 M 225.22 229.00 C 225.24 230.24 225.25 231.47 225.26 232.71 C 243.46 232.80 261.67 232.71 279.88 232.77 C 279.91 231.45 279.95 230.13 280.00 228.82 C 264.03 228.56 248.05 228.82 232.08 228.67 C 229.79 228.62 227.50 228.77 225.22 229.00 M 225.30 240.37 C 225.27 241.80 225.24 243.25 225.21 244.69 C 243.47 244.85 261.73 244.66 279.99 244.79 C 279.91 243.30 279.85 241.82 279.80 240.33 C 261.63 240.50 243.47 240.42 225.30 240.37 Z" />
<path fill="#cd3d3d" opacity="1.00" d=" M 452.40 266.26 C 454.85 266.25 457.30 266.25 459.76 266.26 C 459.71 300.86 459.76 335.47 459.73 370.08 C 453.14 365.62 446.32 361.49 439.80 356.93 L 439.67 356.27 C 440.38 340.11 439.84 323.93 439.95 307.77 C 440.08 298.15 439.94 288.52 440.01 278.91 C 439.74 277.48 440.99 276.65 441.88 275.82 C 445.43 272.68 448.95 269.51 452.40 266.26 Z" />
<path fill="#cd3d3d" opacity="1.00" d=" M 462.98 281.42 C 463.68 281.40 465.08 281.35 465.78 281.32 C 466.87 281.44 467.96 281.60 469.06 281.79 C 468.94 287.17 469.13 292.56 468.94 297.95 L 468.06 298.17 C 468.03 293.19 468.73 288.11 467.76 283.20 C 467.32 282.83 466.42 282.10 465.97 281.74 C 465.32 287.19 465.61 292.69 465.82 298.16 C 465.10 298.09 463.64 297.95 462.92 297.88 C 462.65 292.39 462.62 286.90 462.98 281.42 Z" />
</g>
<g id="#db7474ff">
<path fill="#db7474" opacity="1.00" d=" M 317.23 110.73 C 317.99 110.73 318.76 110.73 319.54 110.73 C 319.53 111.54 319.51 113.15 319.51 113.95 C 318.95 113.97 317.82 114.00 317.26 114.01 C 317.26 113.19 317.24 111.55 317.23 110.73 Z" />
<path fill="#db7474" opacity="1.00" d=" M 317.27 118.20 C 317.83 118.23 318.95 118.27 319.52 118.29 C 319.50 119.69 319.49 121.09 319.49 122.49 C 329.69 122.52 339.90 122.47 350.10 122.52 C 353.96 122.63 358.00 121.95 361.66 123.56 C 361.40 128.05 361.49 132.54 361.51 137.03 C 361.54 139.56 361.74 142.11 361.43 144.63 C 360.37 145.63 358.65 145.07 357.33 145.29 C 354.20 145.27 351.07 145.22 347.94 145.25 C 344.78 145.26 341.63 145.37 338.48 145.36 C 332.15 145.18 325.83 145.26 319.50 145.25 C 319.49 146.51 319.49 147.76 319.49 149.02 C 318.93 149.01 317.81 148.98 317.25 148.97 C 317.24 147.73 317.23 146.48 317.22 145.24 C 303.23 145.25 289.24 145.27 275.25 145.23 C 275.23 137.68 275.32 130.13 275.19 122.58 C 289.21 122.37 303.23 122.60 317.26 122.46 C 317.26 121.04 317.27 119.62 317.27 118.20 M 277.57 124.99 C 277.54 130.93 277.29 136.89 277.71 142.82 C 304.83 142.66 331.95 142.73 359.06 142.78 C 359.45 136.86 359.19 130.93 359.23 125.00 C 332.01 124.99 304.79 125.02 277.57 124.99 Z" />
<path fill="#db7474" opacity="1.00" d=" M 317.27 153.21 C 317.83 153.23 318.95 153.27 319.51 153.29 C 319.50 154.76 319.50 156.24 319.51 157.71 C 318.95 157.73 317.83 157.77 317.27 157.79 C 317.26 156.26 317.26 154.73 317.27 153.21 Z" />
<path fill="#db7474" opacity="1.00" d=" M 225.32 171.27 C 254.25 171.22 283.19 171.30 312.13 171.23 C 341.32 171.36 370.51 171.22 399.70 171.29 C 399.73 176.54 399.73 181.79 399.72 187.03 C 370.53 187.39 341.34 187.00 312.15 187.23 C 283.19 187.21 254.22 187.54 225.27 187.08 C 225.21 181.81 225.21 176.54 225.32 171.27 M 228.76 174.70 C 227.69 177.56 228.45 180.77 228.35 183.77 C 230.44 184.05 232.84 184.91 234.78 183.70 C 235.83 181.74 235.02 179.39 235.04 177.30 C 235.85 177.08 237.47 176.65 238.28 176.43 C 239.61 178.97 237.36 182.67 239.86 184.56 C 240.11 181.07 240.03 177.58 239.88 174.09 C 238.80 174.32 237.72 174.56 236.64 174.80 C 236.04 175.38 235.43 175.95 234.83 176.53 C 235.24 173.11 230.77 174.23 228.76 174.70 M 241.80 174.71 C 241.75 177.61 241.74 180.52 241.66 183.43 C 243.82 184.65 246.29 184.32 248.60 183.77 C 248.55 180.80 249.34 177.61 248.15 174.78 C 246.16 173.73 243.88 174.44 241.80 174.71 M 249.55 176.09 C 250.16 176.10 251.39 176.13 252.00 176.14 C 251.98 178.91 251.96 181.69 252.00 184.46 C 252.41 184.28 253.22 183.90 253.62 183.72 C 253.94 180.48 253.73 177.23 253.74 173.99 C 252.08 174.12 250.48 174.58 249.55 176.09 M 254.60 175.65 C 255.19 175.76 256.39 175.97 256.99 176.08 C 256.98 178.92 256.97 181.77 257.14 184.60 C 257.41 184.31 257.94 183.73 258.21 183.44 C 258.43 180.36 258.19 177.27 258.34 174.18 C 257.00 174.42 255.67 174.78 254.60 175.65 M 261.40 174.42 C 259.45 174.86 260.16 177.52 259.93 178.98 C 260.20 180.76 259.18 184.17 261.92 184.20 C 263.65 184.40 267.16 184.84 266.96 182.16 C 266.97 179.66 267.51 176.89 266.33 174.58 C 264.73 174.14 263.02 174.09 261.40 174.42 M 268.66 175.86 C 268.16 178.57 268.56 181.34 268.90 184.05 C 271.12 184.31 273.37 184.40 275.52 183.69 C 275.53 180.66 275.50 177.64 275.39 174.62 C 273.18 174.57 269.73 173.11 268.66 175.86 M 277.37 176.02 C 276.99 178.74 277.21 181.50 277.71 184.18 C 279.47 184.22 281.23 184.32 282.99 184.17 C 285.48 182.85 283.80 179.47 284.03 177.30 C 284.84 177.09 286.47 176.65 287.28 176.43 C 288.60 178.98 286.38 182.67 288.86 184.57 C 289.10 181.09 289.02 177.60 288.90 174.12 C 287.81 174.34 286.72 174.56 285.64 174.79 C 285.04 175.37 284.43 175.96 283.83 176.54 C 284.83 173.44 281.49 174.48 279.99 174.25 C 278.83 174.31 277.22 174.47 277.37 176.02 M 292.33 174.37 C 289.51 175.26 291.06 178.97 290.69 181.14 C 289.92 184.98 295.43 185.06 297.49 183.44 C 297.96 180.77 297.90 178.01 297.50 175.35 C 296.39 173.69 294.01 174.24 292.33 174.37 M 298.59 176.02 C 299.19 176.05 300.38 176.12 300.98 176.16 C 300.98 178.95 300.97 181.74 301.03 184.53 C 301.44 184.36 302.25 184.01 302.66 183.84 C 302.92 180.55 302.72 177.26 302.69 173.97 C 301.13 174.26 299.48 174.53 298.59 176.02 M 304.43 175.30 C 304.04 178.09 304.31 180.93 304.33 183.74 C 306.49 184.34 308.74 184.31 310.95 184.03 C 311.00 180.91 312.19 177.27 310.32 174.50 C 308.45 174.28 305.71 173.54 304.43 175.30 M 313.11 175.19 C 312.27 178.07 312.84 181.12 313.07 184.05 C 315.28 184.31 317.51 184.30 319.70 183.84 C 319.54 180.83 320.30 177.59 319.25 174.73 C 317.39 174.00 314.68 173.69 313.11 175.19 M 320.56 176.06 C 321.16 176.08 322.37 176.12 322.97 176.14 C 322.97 178.91 322.97 181.69 323.03 184.47 C 323.43 184.31 324.23 183.99 324.64 183.82 C 324.93 180.57 324.72 177.29 324.72 174.03 C 323.09 174.16 321.47 174.55 320.56 176.06 M 326.76 174.89 C 325.83 177.57 326.13 180.60 326.51 183.38 C 328.12 184.72 331.74 184.95 333.17 183.12 C 333.44 180.80 333.21 178.46 333.20 176.13 C 334.11 176.13 335.92 176.14 336.83 176.14 C 337.27 178.85 335.44 182.52 337.84 184.59 C 338.13 181.01 338.05 177.42 337.81 173.84 C 336.46 174.54 335.10 175.24 333.76 175.95 C 333.27 175.51 332.28 174.63 331.78 174.19 C 330.12 174.39 328.23 173.93 326.76 174.89 M 338.93 175.48 C 339.53 175.83 340.72 176.54 341.32 176.89 C 341.81 179.34 339.74 183.65 342.97 184.53 C 343.08 180.95 343.06 177.36 342.91 173.79 C 341.57 174.32 340.23 174.86 338.93 175.48 M 345.32 174.34 C 344.17 177.34 343.96 180.92 345.18 183.92 C 347.26 184.68 349.46 184.21 351.53 183.68 C 351.43 180.73 351.77 177.75 351.26 174.83 C 349.42 173.87 347.28 174.42 345.32 174.34 M 352.68 175.41 C 353.24 175.62 354.34 176.04 354.89 176.25 C 355.12 179.03 354.95 181.82 355.12 184.60 C 355.39 184.32 355.93 183.76 356.20 183.48 C 356.43 180.40 356.20 177.29 356.34 174.20 C 355.09 174.52 353.89 174.97 352.68 175.41 M 358.79 174.72 C 357.17 177.40 358.26 180.80 358.21 183.78 C 360.40 184.33 362.65 184.33 364.87 184.00 C 365.02 180.96 365.03 177.92 364.95 174.87 C 363.00 174.28 360.69 173.72 358.79 174.72 M 366.82 175.50 C 366.58 177.63 366.63 179.79 366.73 181.94 C 366.65 185.23 371.74 184.79 373.55 183.37 C 374.04 180.45 373.72 177.48 373.40 174.56 C 371.25 174.54 368.28 173.34 366.82 175.50 M 374.54 176.03 C 375.15 176.08 376.39 176.18 377.00 176.23 C 376.99 178.97 376.97 181.71 377.00 184.45 C 377.41 184.30 378.23 183.98 378.64 183.82 C 378.92 180.56 378.73 177.28 378.73 174.00 C 377.11 174.18 375.49 174.56 374.54 176.03 M 379.67 175.75 C 380.25 175.84 381.42 176.03 382.00 176.12 C 381.97 178.96 381.97 181.81 382.17 184.64 C 384.63 181.89 382.64 177.58 383.34 174.20 C 381.99 174.40 380.63 174.71 379.67 175.75 M 385.34 175.30 C 384.56 178.07 385.11 181.00 385.18 183.83 C 387.27 184.02 389.70 184.93 391.63 183.71 C 392.20 181.86 392.04 179.87 392.05 177.95 C 391.83 176.81 392.31 174.51 390.62 174.39 C 388.90 174.28 386.49 173.63 385.34 175.30 M 392.78 175.62 C 398.01 176.11 392.70 183.52 396.97 184.52 C 397.09 180.94 397.06 177.36 396.90 173.79 C 395.40 174.11 394.00 174.71 392.78 175.62 Z" />
<path fill="#db7474" opacity="1.00" d=" M 229.60 175.50 C 231.05 175.56 232.51 175.62 233.97 175.68 C 233.99 178.09 233.98 180.50 233.94 182.92 C 232.51 182.95 231.08 182.98 229.65 183.03 C 229.48 180.52 229.47 178.01 229.60 175.50 Z" />
<path fill="#db7474" opacity="1.00" d=" M 242.99 175.63 C 244.44 175.60 245.90 175.58 247.37 175.56 C 247.54 178.04 247.52 180.52 247.31 183.00 C 245.90 182.98 244.48 182.97 243.07 182.97 C 243.02 180.52 242.99 178.08 242.99 175.63 Z" />
<path fill="#db7474" opacity="1.00" d=" M 261.35 175.59 C 262.42 175.58 264.56 175.55 265.63 175.54 C 265.78 178.03 265.77 180.53 265.55 183.03 C 264.52 183.02 262.46 183.01 261.42 183.00 C 261.24 180.54 261.22 178.06 261.35 175.59 Z" />
<path fill="#db7474" opacity="1.00" d=" M 269.84 175.66 C 271.29 175.63 272.75 175.59 274.21 175.55 C 274.26 178.03 274.26 180.52 274.22 183.01 C 272.77 182.98 271.33 182.96 269.90 182.94 C 269.75 180.52 269.72 178.09 269.84 175.66 Z" />
<path fill="#db7474" opacity="1.00" d=" M 278.59 175.56 C 280.05 175.57 281.53 175.59 283.00 175.62 C 283.01 178.06 282.98 180.50 282.92 182.94 C 281.49 182.96 280.07 182.99 278.65 183.02 C 278.49 180.53 278.47 178.04 278.59 175.56 Z" />
<path fill="#db7474" opacity="1.00" d=" M 291.98 175.66 C 293.46 175.65 294.94 175.62 296.43 175.57 C 296.51 178.06 296.50 180.54 296.35 183.03 C 294.92 182.99 293.50 182.96 292.08 182.93 C 292.02 180.50 291.99 178.08 291.98 175.66 Z" />
<path fill="#db7474" opacity="1.00" d=" M 305.64 175.45 C 307.08 175.54 308.53 175.63 309.98 175.72 C 310.00 178.10 309.97 180.48 309.92 182.87 C 308.49 182.92 307.07 182.98 305.65 183.04 C 305.46 180.52 305.47 177.98 305.64 175.45 Z" />
<path fill="#db7474" opacity="1.00" d=" M 314.02 175.66 C 315.49 175.63 316.96 175.59 318.42 175.53 C 318.52 178.02 318.50 180.51 318.38 183.01 C 316.94 182.96 315.51 182.92 314.08 182.88 C 314.02 180.47 314.00 178.07 314.02 175.66 Z" />
<path fill="#db7474" opacity="1.00" d=" M 327.59 175.55 C 329.07 175.61 330.55 175.64 332.04 175.66 C 332.02 178.09 331.97 180.52 331.90 182.95 C 330.48 182.97 329.06 182.99 327.65 183.02 C 327.50 180.53 327.47 178.04 327.59 175.55 Z" />
<path fill="#db7474" opacity="1.00" d=" M 345.84 175.66 C 347.29 175.62 348.75 175.58 350.21 175.54 C 350.26 178.03 350.26 180.52 350.21 183.01 C 348.76 182.99 347.31 182.97 345.87 182.95 C 345.74 180.52 345.73 178.09 345.84 175.66 Z" />
<path fill="#db7474" opacity="1.00" d=" M 359.38 175.62 C 360.44 175.59 362.57 175.55 363.63 175.53 C 363.75 178.02 363.76 180.52 363.66 183.02 C 362.61 183.01 360.50 183.00 359.45 182.99 C 359.24 180.53 359.23 178.07 359.38 175.62 Z" />
<path fill="#db7474" opacity="1.00" d=" M 368.00 175.59 C 369.47 175.61 370.94 175.62 372.42 175.61 C 372.52 178.08 372.50 180.56 372.34 183.04 C 370.91 182.99 369.49 182.96 368.08 182.93 C 368.02 180.48 367.99 178.04 368.00 175.59 Z" />
<path fill="#db7474" opacity="1.00" d=" M 386.36 175.62 C 387.44 175.60 389.59 175.57 390.67 175.55 C 390.78 178.04 390.74 180.54 390.56 183.03 C 389.52 183.02 387.45 183.01 386.41 183.00 C 386.25 180.54 386.23 178.08 386.36 175.62 Z" />
<path fill="#db7474" opacity="1.00" d=" M 225.21 193.12 C 243.48 192.84 261.75 193.06 280.03 193.02 C 280.00 194.41 279.98 195.80 279.97 197.19 C 261.73 197.29 243.48 197.50 225.25 197.09 C 225.24 195.76 225.23 194.44 225.21 193.12 Z" />
<path fill="#db7474" opacity="1.00" d=" M 285.03 193.02 C 294.05 192.94 303.07 193.02 312.09 193.00 C 341.44 193.08 370.79 192.84 400.14 193.13 C 399.96 193.56 399.61 194.42 399.44 194.85 C 395.66 195.47 391.82 195.10 388.01 195.17 C 362.72 195.21 337.44 195.10 312.15 195.22 C 303.10 195.31 294.05 195.35 285.01 195.20 C 285.02 194.66 285.03 193.57 285.03 193.02 Z" />
<path fill="#db7474" opacity="1.00" d=" M 225.18 204.98 C 227.47 204.77 229.76 204.63 232.05 204.67 C 248.04 204.85 264.03 204.50 280.01 204.83 C 279.98 206.21 279.97 207.59 279.97 208.98 C 261.73 208.95 243.48 209.11 225.24 208.91 C 225.23 207.60 225.21 206.29 225.18 204.98 Z" />
<path fill="#db7474" opacity="1.00" d=" M 285.00 205.04 C 293.95 204.93 302.90 205.05 311.85 204.98 C 318.98 205.13 326.12 204.78 333.25 205.13 C 333.27 205.60 333.32 206.53 333.34 207.00 C 326.29 207.46 319.21 206.99 312.15 207.22 C 303.10 207.30 294.04 207.39 285.00 207.16 C 285.00 206.63 285.00 205.57 285.00 205.04 Z" />
<path fill="#db7474" opacity="1.00" d=" M 285.09 211.24 C 294.10 211.27 303.11 211.23 312.12 211.25 C 322.24 211.44 332.39 211.02 342.51 211.43 C 342.74 211.87 343.21 212.75 343.45 213.20 C 332.91 213.75 322.36 213.12 311.82 213.53 C 302.94 213.68 294.07 213.51 285.20 213.64 C 285.17 213.04 285.12 211.84 285.09 211.24 Z" />
<path fill="#db7474" opacity="1.00" d=" M 225.21 216.93 C 243.45 216.46 261.71 216.74 279.95 216.81 C 279.96 218.21 279.97 219.60 279.99 221.00 C 261.72 220.95 243.45 221.16 225.19 220.88 C 225.20 219.56 225.21 218.24 225.21 216.93 Z" />
<path fill="#db7474" opacity="1.00" d=" M 285.07 217.23 C 294.09 217.26 303.11 217.26 312.14 217.25 C 333.16 217.40 354.18 217.10 375.20 217.40 C 374.58 218.74 373.66 219.77 372.04 219.42 C 351.98 219.47 331.90 219.25 311.84 219.52 C 302.97 219.68 294.10 219.50 285.23 219.66 C 285.19 219.05 285.11 217.84 285.07 217.23 Z" />
<path fill="#db7474" opacity="1.00" d=" M 285.07 223.24 C 294.11 223.23 303.15 223.28 312.20 223.24 C 341.46 223.38 370.72 223.17 399.98 223.34 C 399.80 223.86 399.42 224.91 399.23 225.43 C 370.09 225.46 340.95 225.26 311.82 225.53 C 302.98 225.64 294.14 225.52 285.29 225.63 C 285.24 225.04 285.13 223.84 285.07 223.24 Z" />
<path fill="#db7474" opacity="1.00" d=" M 225.22 229.00 C 227.50 228.77 229.79 228.62 232.08 228.67 C 248.05 228.82 264.03 228.56 280.00 228.82 C 279.95 230.13 279.91 231.45 279.88 232.77 C 261.67 232.71 243.46 232.80 225.26 232.71 C 225.25 231.47 225.24 230.24 225.22 229.00 Z" />
<path fill="#db7474" opacity="1.00" d=" M 285.06 229.27 C 294.10 229.25 303.14 229.26 312.18 229.23 C 325.86 229.41 339.55 229.11 353.23 229.39 C 352.55 230.65 351.65 231.74 350.05 231.40 C 337.33 231.48 324.61 231.27 311.89 231.51 C 303.01 231.64 294.14 231.53 285.27 231.65 C 285.21 231.06 285.11 229.86 285.06 229.27 Z" />
<path fill="#db7474" opacity="1.00" d=" M 285.35 235.98 C 294.28 235.32 303.28 235.85 312.23 235.78 C 335.82 235.91 359.40 235.78 382.98 235.84 C 388.75 235.89 394.53 235.59 400.28 236.14 C 400.05 236.54 399.60 237.34 399.38 237.74 C 395.93 238.29 392.42 237.94 388.95 238.00 C 363.24 238.02 337.53 237.96 311.81 238.03 C 302.76 237.94 293.71 238.07 284.66 237.95 C 284.83 237.45 285.18 236.47 285.35 235.98 Z" />
<path fill="#db7474" opacity="1.00" d=" M 225.30 240.37 C 243.47 240.42 261.63 240.50 279.80 240.33 C 279.85 241.82 279.91 243.30 279.99 244.79 C 261.73 244.66 243.47 244.85 225.21 244.69 C 225.24 243.25 225.27 241.80 225.30 240.37 Z" />
<path fill="#db7474" opacity="1.00" d=" M 284.97 247.79 C 294.02 247.61 303.08 247.68 312.14 247.78 C 319.18 248.04 326.25 247.49 333.29 248.03 C 333.28 248.49 333.28 249.42 333.27 249.88 C 326.22 250.22 319.14 249.87 312.08 250.02 C 303.05 249.97 294.03 250.04 285.01 249.97 C 285.00 249.43 284.98 248.34 284.97 247.79 Z" />
<path fill="#db7474" opacity="1.00" d=" M 241.06 252.37 C 253.98 252.51 266.91 252.38 279.83 252.36 C 279.86 253.83 279.90 255.29 279.95 256.77 C 267.62 256.74 255.28 256.74 242.95 256.75 C 242.50 255.22 241.82 253.77 241.06 252.37 Z" />
<path fill="#db7474" opacity="1.00" d=" M 284.97 253.83 C 294.02 253.59 303.08 253.72 312.13 253.78 C 322.40 253.93 332.66 253.74 342.93 253.86 C 342.96 254.39 343.01 255.44 343.03 255.97 C 332.71 256.06 322.39 255.94 312.07 256.02 C 303.06 255.99 294.04 256.00 285.03 255.99 C 285.02 255.45 284.99 254.37 284.97 253.83 Z" />
<path fill="#db7474" opacity="1.00" d=" M 284.65 260.07 C 293.80 259.90 302.95 260.04 312.11 259.98 C 333.17 260.16 354.24 259.70 375.29 260.22 C 375.06 260.61 374.59 261.40 374.36 261.80 C 370.96 262.52 367.45 262.10 364.01 262.17 C 346.72 262.19 329.43 262.11 312.15 262.22 C 303.23 262.16 294.27 262.70 285.37 262.01 C 285.19 261.53 284.83 260.56 284.65 260.07 Z" />
<path fill="#db7474" opacity="1.00" d=" M 242.75 264.19 C 255.15 264.35 267.55 264.22 279.94 264.24 C 279.89 265.70 279.86 267.17 279.84 268.64 C 267.47 268.57 255.11 268.51 242.75 268.64 C 242.75 267.15 242.76 265.67 242.75 264.19 Z" />
<path fill="#db7474" opacity="1.00" d=" M 285.00 266.05 C 294.04 265.92 303.08 266.04 312.12 266.00 C 341.48 266.12 370.84 265.78 400.19 266.16 C 400.02 268.46 397.68 268.06 396.02 268.18 C 368.07 268.19 340.13 268.11 312.18 268.22 C 303.12 268.32 294.06 268.38 285.00 268.20 C 285.00 267.66 285.00 266.58 285.00 266.05 Z" />
<path fill="#db7474" opacity="1.00" d=" M 205.15 298.00 C 209.05 297.40 205.09 302.57 204.13 299.17 C 204.39 298.88 204.89 298.29 205.15 298.00 Z" />
</g>
<g id="#eaadadff">
<path fill="#eaadad" opacity="1.00" d=" M 128.21 112.06 C 169.47 111.93 210.73 112.03 251.99 112.00 C 252.01 117.00 252.00 121.99 252.00 126.98 C 210.75 127.04 169.50 127.01 128.25 126.98 C 128.24 122.01 128.25 117.03 128.21 112.06 Z" />
<path fill="#eaadad" opacity="1.00" d=" M 132.29 131.28 C 151.07 131.29 169.86 131.13 188.64 131.33 C 188.50 140.36 188.82 149.41 188.51 158.45 C 169.79 158.84 151.06 158.51 132.33 158.64 C 132.16 149.52 132.23 140.40 132.29 131.28 Z" />
<path fill="#eaadad" opacity="1.00" d=" M 132.25 162.25 C 140.79 162.18 149.33 162.35 157.87 162.19 C 157.90 163.50 157.94 164.80 157.98 166.11 C 149.38 166.31 140.75 166.47 132.15 166.05 C 132.19 164.78 132.22 163.51 132.25 162.25 Z" />
<path fill="#eaadad" opacity="1.00" d=" M 163.03 162.22 C 171.53 162.44 180.04 161.97 188.54 162.44 C 188.60 163.58 188.69 164.72 188.78 165.86 C 180.16 166.60 171.45 166.32 162.80 166.05 C 162.91 164.77 162.98 163.49 163.03 162.22 Z" />
<path fill="#eaadad" opacity="1.00" d=" M 165.01 170.82 C 172.76 170.75 180.52 170.55 188.27 170.88 C 188.26 171.71 188.23 173.37 188.22 174.20 C 180.49 174.54 172.74 174.51 165.01 174.17 C 165.01 173.33 165.01 171.66 165.01 170.82 Z" />
<path fill="#eaadad" opacity="1.00" d=" M 165.01 179.09 C 172.95 179.08 180.91 178.75 188.84 179.22 C 188.73 180.35 188.61 181.47 188.50 182.60 C 180.68 182.99 172.84 182.61 165.01 182.80 C 165.00 181.56 165.00 180.33 165.01 179.09 Z" />
<path fill="#eaadad" opacity="1.00" d=" M 165.02 187.81 C 172.77 187.50 180.54 187.47 188.29 187.79 C 188.27 188.64 188.23 190.35 188.21 191.20 C 180.48 191.33 172.74 191.38 165.02 191.13 C 165.02 190.30 165.02 188.64 165.02 187.81 Z" />
<path fill="#eaadad" opacity="1.00" d=" M 459.76 266.26 C 461.25 266.24 462.75 266.23 464.25 266.22 C 464.65 266.22 465.46 266.22 465.87 266.22 C 465.52 271.24 465.53 276.29 465.78 281.32 C 465.08 281.35 463.68 281.40 462.98 281.42 C 462.62 286.90 462.65 292.39 462.92 297.88 C 466.83 300.23 465.12 305.25 465.35 309.03 C 464.53 309.72 463.71 310.42 462.92 311.15 C 462.83 312.37 462.78 313.60 462.77 314.83 C 463.39 314.86 464.61 314.92 465.23 314.95 C 465.22 315.80 465.22 317.51 465.22 318.36 C 464.68 318.39 463.61 318.46 463.08 318.49 C 462.66 320.50 462.28 323.13 465.22 322.92 C 465.20 324.35 465.19 325.79 465.18 327.23 C 464.63 327.27 463.53 327.35 462.98 327.39 C 462.89 328.51 462.84 329.63 462.81 330.76 C 466.30 332.62 465.36 336.68 465.42 339.97 C 465.19 351.00 465.64 362.03 465.23 373.06 C 463.24 372.37 461.47 371.24 459.73 370.08 C 459.76 335.47 459.71 300.86 459.76 266.26 Z" />
</g>
<g id="#f3d0d0ff">
<path fill="#f3d0d0" opacity="1.00" d=" M 128.25 126.98 C 169.50 127.01 210.75 127.04 252.00 126.98 C 252.00 137.83 252.00 148.68 252.00 159.53 C 241.59 159.81 231.12 158.96 220.76 159.96 C 218.59 160.82 216.80 162.53 215.74 164.60 C 214.75 167.29 214.97 170.19 214.97 173.00 C 215.03 180.75 214.99 188.50 214.99 196.24 C 198.33 196.26 181.67 196.26 165.00 196.24 C 165.01 194.53 165.01 192.83 165.02 191.13 C 172.74 191.38 180.48 191.33 188.21 191.20 C 188.23 190.35 188.27 188.64 188.29 187.79 C 180.54 187.47 172.77 187.50 165.02 187.81 C 165.01 186.14 165.01 184.47 165.01 182.80 C 172.84 182.61 180.68 182.99 188.50 182.60 C 188.61 181.47 188.73 180.35 188.84 179.22 C 180.91 178.75 172.95 179.08 165.01 179.09 C 165.01 177.45 165.02 175.81 165.01 174.17 C 172.74 174.51 180.49 174.54 188.22 174.20 C 188.23 173.37 188.26 171.71 188.27 170.88 C 180.52 170.55 172.76 170.75 165.01 170.82 L 164.19 170.83 C 163.35 168.75 161.48 166.99 159.12 167.05 C 148.83 166.89 138.53 167.06 128.23 167.00 C 128.27 153.66 128.25 140.32 128.25 126.98 M 132.29 131.28 C 132.23 140.40 132.16 149.52 132.33 158.64 C 151.06 158.51 169.79 158.84 188.51 158.45 C 188.82 149.41 188.50 140.36 188.64 131.33 C 169.86 131.13 151.07 131.29 132.29 131.28 M 132.25 162.25 C 132.22 163.51 132.19 164.78 132.15 166.05 C 140.75 166.47 149.38 166.31 157.98 166.11 C 157.94 164.80 157.90 163.50 157.87 162.19 C 149.33 162.35 140.79 162.18 132.25 162.25 M 163.03 162.22 C 162.98 163.49 162.91 164.77 162.80 166.05 C 171.45 166.32 180.16 166.60 188.78 165.86 C 188.69 164.72 188.60 163.58 188.54 162.44 C 180.04 161.97 171.53 162.44 163.03 162.22 Z" />
</g>
<g id="#d14c4cff">
<path fill="#d14c4c" opacity="1.00" d=" M 454.20 143.53 C 455.58 142.12 457.42 141.43 459.37 141.31 C 460.29 143.52 462.47 144.67 464.32 146.00 C 460.10 146.00 455.88 146.00 451.67 145.94 C 452.51 145.13 453.33 144.31 454.20 143.53 Z" />
<path fill="#d14c4c" opacity="1.00" d=" M 149.15 260.16 L 149.97 260.11 L 149.96 260.83 C 149.80 276.94 149.98 293.06 149.87 309.17 C 151.41 308.23 152.90 306.08 154.93 306.84 C 156.87 307.18 156.78 309.47 157.43 310.89 C 163.90 312.35 170.19 315.63 176.89 315.37 C 182.49 312.46 187.77 308.93 193.13 305.59 C 195.48 304.07 198.02 302.84 200.34 301.27 C 202.22 300.10 202.65 297.59 204.39 296.31 C 211.68 297.56 218.93 295.98 226.20 295.40 C 227.13 294.00 227.87 291.98 229.88 292.00 C 232.39 292.67 233.21 295.54 234.74 297.36 C 235.22 285.00 234.90 272.63 234.91 260.27 L 235.71 260.27 C 235.77 295.52 235.29 330.78 235.56 366.04 C 235.38 367.13 236.05 369.56 234.08 369.21 C 220.38 369.43 206.67 369.14 192.96 369.33 C 178.44 369.27 163.88 369.82 149.38 369.04 C 149.41 346.71 149.82 324.36 149.03 302.04 C 149.12 288.08 148.93 274.11 149.15 260.16 M 229.21 294.08 C 227.64 294.53 228.15 297.18 229.81 296.82 C 231.69 296.54 231.14 293.24 229.21 294.08 M 205.15 298.00 C 204.89 298.29 204.39 298.88 204.13 299.17 C 205.09 302.57 209.05 297.40 205.15 298.00 M 153.15 309.00 C 152.59 310.61 153.13 311.19 154.76 310.72 C 155.31 309.08 154.78 308.51 153.15 309.00 M 174.13 317.27 C 172.63 318.26 174.27 320.81 175.73 319.59 C 177.22 318.60 175.60 316.02 174.13 317.27 Z" />
</g>
<g id="#591717ff">
<path fill="#591717" opacity="1.00" d=" M 261.51 159.75 C 286.23 159.65 310.96 159.97 335.68 159.58 C 339.40 159.66 343.11 159.83 346.84 159.77 C 349.95 159.75 353.07 159.72 356.19 159.71 C 358.92 159.73 361.66 159.76 364.40 159.75 C 376.93 159.79 389.46 159.68 401.99 159.79 C 406.16 159.75 410.07 163.73 409.25 168.00 C 408.83 175.74 409.76 183.44 409.80 191.18 L 410.40 191.38 C 409.26 194.64 409.64 198.10 410.17 201.43 C 409.95 202.62 409.71 203.81 409.73 205.03 C 409.77 229.29 409.73 253.56 409.75 277.82 C 377.20 277.81 344.66 277.82 312.11 277.82 C 289.02 277.83 265.92 277.82 242.83 277.83 C 242.80 284.05 242.86 290.28 242.79 296.50 C 242.67 321.70 242.81 346.89 242.72 372.09 C 242.89 375.08 239.94 377.41 237.06 377.00 C 222.34 377.00 207.62 377.00 192.90 377.00 C 192.91 374.44 192.94 371.88 192.96 369.33 C 206.67 369.14 220.38 369.43 234.08 369.21 C 236.05 369.56 235.38 367.13 235.56 366.04 C 235.29 330.78 235.77 295.52 235.71 260.27 L 234.91 260.27 C 220.90 260.25 206.90 260.44 192.90 260.17 L 193.08 259.54 C 193.69 258.44 194.35 257.37 195.02 256.30 C 194.55 255.82 193.62 254.86 193.15 254.38 C 193.12 253.72 193.06 252.41 193.03 251.75 C 200.43 251.75 207.82 251.74 215.22 251.76 C 215.29 236.09 215.25 220.42 215.24 204.75 C 215.76 191.37 215.37 177.98 215.74 164.60 C 216.80 162.53 218.59 160.82 220.76 159.96 C 234.35 160.08 247.93 160.01 261.51 159.75 M 221.79 167.03 C 221.80 195.28 221.53 223.55 221.93 251.80 C 228.31 251.90 234.74 251.27 241.06 252.37 C 241.82 253.77 242.50 255.22 242.95 256.75 C 242.71 259.22 242.70 261.71 242.75 264.19 C 242.76 265.67 242.75 267.15 242.75 268.64 C 242.77 269.48 242.81 271.16 242.83 272.00 C 265.95 271.99 289.07 272.02 312.19 271.99 C 342.53 271.98 372.87 272.05 403.20 271.95 C 403.31 236.98 403.34 202.00 403.19 167.02 C 372.87 166.98 342.55 166.99 312.23 167.01 C 282.09 167.00 251.94 166.97 221.79 167.03 Z" />
<path fill="#591717" opacity="1.00" d=" M 16.99 173.97 C 16.60 170.55 19.33 166.87 22.93 167.02 C 54.87 166.97 86.82 167.01 118.76 167.00 C 121.92 167.00 125.07 167.00 128.23 167.00 C 138.53 167.06 148.83 166.89 159.12 167.05 C 161.48 166.99 163.35 168.75 164.19 170.83 C 164.71 182.13 164.31 193.45 164.76 204.75 C 164.73 220.43 164.74 236.11 164.76 251.78 C 163.10 251.79 161.45 251.80 159.79 251.79 C 159.66 226.52 159.71 201.25 159.76 175.98 C 159.58 174.79 160.16 172.18 158.08 172.58 C 135.70 172.53 113.32 172.55 90.94 172.58 C 67.96 172.53 44.98 172.46 22.01 172.61 C 21.95 199.17 22.07 225.73 21.95 252.29 C 30.54 253.60 39.33 252.18 47.99 252.93 C 47.98 253.63 47.98 255.04 47.97 255.74 C 37.65 255.70 27.32 255.61 17.00 255.73 C 17.00 228.48 17.01 201.23 16.99 173.97 Z" />
<path fill="#591717" opacity="1.00" d=" M 54.95 231.15 C 56.95 230.68 58.94 230.19 60.92 229.66 C 61.65 237.10 61.01 244.58 61.32 252.03 L 61.37 252.65 C 88.49 253.02 115.63 252.45 142.76 252.87 C 142.68 253.90 142.61 254.94 142.55 255.99 C 115.41 256.09 88.26 255.85 61.12 256.10 L 61.08 256.98 C 61.01 261.61 61.04 266.23 61.18 270.86 C 61.20 271.57 61.24 273.01 61.26 273.72 C 61.29 276.24 61.26 278.76 61.25 281.29 C 61.25 284.55 61.45 287.82 61.07 291.07 L 59.30 291.03 C 57.86 291.00 56.43 290.98 54.99 290.98 C 54.54 284.31 54.74 277.63 54.68 270.96 C 54.88 257.69 54.33 244.41 54.95 231.15 Z" />
<path fill="#591717" opacity="1.00" d=" M 90.77 260.98 C 93.90 260.96 97.06 261.07 100.14 261.69 C 100.14 262.34 100.12 263.63 100.12 264.28 C 97.05 264.99 93.90 265.05 90.77 264.95 C 90.78 263.63 90.78 262.30 90.77 260.98 Z" />
<path fill="#591717" opacity="1.00" d=" M 90.85 270.91 C 96.52 270.79 102.20 271.13 107.86 270.59 C 107.98 275.74 108.75 280.84 109.14 285.97 C 103.02 286.02 96.91 285.99 90.79 286.00 C 90.70 280.97 90.71 275.94 90.85 270.91 Z" />
<path fill="#591717" opacity="1.00" d=" M 312.22 283.22 C 315.55 283.10 318.88 282.91 322.22 282.90 C 325.08 283.69 325.45 288.09 322.83 289.27 C 319.31 289.68 315.78 289.69 312.25 289.60 C 312.23 287.47 312.23 285.35 312.22 283.22 Z" />
<path fill="#591717" opacity="1.00" d=" M 312.12 296.91 C 319.69 296.32 327.29 296.65 334.87 296.74 C 335.03 303.31 336.26 309.80 336.38 316.37 C 328.34 315.62 320.25 316.22 312.19 316.05 C 312.24 309.67 312.41 303.28 312.12 296.91 Z" />
</g>
<g id="#d76666ff">
<path fill="#d76666" opacity="1.00" d=" M 427.20 163.15 C 447.54 162.80 467.89 163.10 488.23 163.00 L 488.25 163.73 C 468.00 163.61 447.73 163.44 427.49 163.81 C 428.30 165.61 430.43 165.12 431.99 165.31 C 450.78 165.30 469.59 165.05 488.37 165.46 C 468.02 165.97 447.63 165.60 427.27 165.65 C 427.25 165.03 427.22 163.77 427.20 163.15 Z" />
<path fill="#d76666" opacity="1.00" d=" M 427.34 170.32 C 447.67 170.47 468.02 169.97 488.34 170.55 C 468.07 171.22 447.75 170.26 427.49 170.99 C 428.40 172.74 430.50 172.24 432.08 172.42 C 450.92 172.35 469.77 172.34 488.62 172.44 C 486.85 173.23 484.89 173.00 483.02 173.03 C 464.40 172.85 445.77 173.24 427.16 172.84 C 427.20 172.21 427.29 170.95 427.34 170.32 Z" />
</g>
<g id="#af2e2eff">
<path fill="#af2e2e" opacity="1.00" d=" M 427.49 163.81 C 447.73 163.44 468.00 163.61 488.25 163.73 L 488.37 165.46 C 469.59 165.05 450.78 165.30 431.99 165.31 C 430.43 165.12 428.30 165.61 427.49 163.81 Z" />
<path fill="#af2e2e" opacity="1.00" d=" M 312.23 167.01 C 342.55 166.99 372.87 166.98 403.19 167.02 C 403.34 202.00 403.31 236.98 403.20 271.95 C 372.87 272.05 342.53 271.98 312.19 271.99 C 312.19 270.73 312.18 269.47 312.18 268.22 C 340.13 268.11 368.07 268.19 396.02 268.18 C 397.68 268.06 400.02 268.46 400.19 266.16 C 370.84 265.78 341.48 266.12 312.12 266.00 C 312.12 264.74 312.14 263.48 312.15 262.22 C 329.43 262.11 346.72 262.19 364.01 262.17 C 367.45 262.10 370.96 262.52 374.36 261.80 C 374.59 261.40 375.06 260.61 375.29 260.22 C 354.24 259.70 333.17 260.16 312.11 259.98 C 312.09 258.66 312.08 257.34 312.07 256.02 C 322.39 255.94 332.71 256.06 343.03 255.97 C 343.01 255.44 342.96 254.39 342.93 253.86 C 332.66 253.74 322.40 253.93 312.13 253.78 C 312.11 252.52 312.09 251.27 312.08 250.02 C 319.14 249.87 326.22 250.22 333.27 249.88 C 333.28 249.42 333.28 248.49 333.29 248.03 C 326.25 247.49 319.18 248.04 312.14 247.78 C 312.11 246.53 312.09 245.29 312.07 244.04 C 315.16 244.06 318.25 243.97 321.34 243.78 C 320.01 240.50 315.60 242.31 312.87 241.77 C 312.52 240.52 312.16 239.27 311.81 238.03 C 337.53 237.96 363.24 238.02 388.95 238.00 C 392.42 237.94 395.93 238.29 399.38 237.74 C 399.60 237.34 400.05 236.54 400.28 236.14 C 394.53 235.59 388.75 235.89 382.98 235.84 C 359.40 235.78 335.82 235.91 312.23 235.78 C 312.11 234.36 312.00 232.93 311.89 231.51 C 324.61 231.27 337.33 231.48 350.05 231.40 C 351.65 231.74 352.55 230.65 353.23 229.39 C 339.55 229.11 325.86 229.41 312.18 229.23 C 312.09 228.31 311.91 226.45 311.82 225.53 C 340.95 225.26 370.09 225.46 399.23 225.43 C 399.42 224.91 399.80 223.86 399.98 223.34 C 370.72 223.17 341.46 223.38 312.20 223.24 C 312.11 222.31 311.93 220.45 311.84 219.52 C 331.90 219.25 351.98 219.47 372.04 219.42 C 373.66 219.77 374.58 218.74 375.20 217.40 C 354.18 217.10 333.16 217.40 312.14 217.25 C 312.06 216.32 311.90 214.46 311.82 213.53 C 322.36 213.12 332.91 213.75 343.45 213.20 C 343.21 212.75 342.74 211.87 342.51 211.43 C 332.39 211.02 322.24 211.44 312.12 211.25 C 312.12 209.90 312.13 208.56 312.15 207.22 C 319.21 206.99 326.29 207.46 333.34 207.00 C 333.32 206.53 333.27 205.60 333.25 205.13 C 326.12 204.78 318.98 205.13 311.85 204.98 C 312.19 203.72 312.53 202.47 312.87 201.22 C 315.56 200.64 320.18 202.61 321.26 199.18 C 318.20 199.02 315.14 198.94 312.08 198.96 C 312.10 197.71 312.12 196.46 312.15 195.22 C 337.44 195.10 362.72 195.21 388.01 195.17 C 391.82 195.10 395.66 195.47 399.44 194.85 C 399.61 194.42 399.96 193.56 400.14 193.13 C 370.79 192.84 341.44 193.08 312.09 193.00 C 312.11 191.07 312.13 189.15 312.15 187.23 C 341.34 187.00 370.53 187.39 399.72 187.03 C 399.73 181.79 399.73 176.54 399.70 171.29 C 370.51 171.22 341.32 171.36 312.13 171.23 C 312.16 169.82 312.20 168.42 312.23 167.01 Z" />
<path fill="#af2e2e" opacity="1.00" d=" M 427.49 170.99 C 447.75 170.26 468.07 171.22 488.34 170.55 L 488.62 172.44 C 469.77 172.34 450.92 172.35 432.08 172.42 C 430.50 172.24 428.40 172.74 427.49 170.99 Z" />
<path fill="#af2e2e" opacity="1.00" d=" M 471.75 266.26 C 474.71 266.24 477.68 266.25 480.66 266.26 C 484.09 269.56 487.15 273.23 490.67 276.45 C 490.95 283.63 490.49 290.83 490.89 298.00 C 492.67 302.50 495.93 306.33 497.43 310.93 C 497.77 320.95 497.04 330.97 497.25 340.99 C 497.13 343.56 497.57 346.22 496.96 348.74 C 490.05 357.27 480.43 362.85 471.80 369.44 C 471.64 335.05 471.74 300.65 471.75 266.26 Z" />
<path fill="#af2e2e" opacity="1.00" d=" M 465.97 281.74 C 466.42 282.10 467.32 282.83 467.76 283.20 C 468.73 288.11 468.03 293.19 468.06 298.17 C 467.50 298.16 466.38 298.16 465.82 298.16 C 465.61 292.69 465.32 287.19 465.97 281.74 Z" />
<path fill="#af2e2e" opacity="1.00" d=" M 433.77 311.82 C 435.75 310.36 437.81 308.99 439.95 307.77 C 439.84 323.93 440.38 340.11 439.67 356.27 C 438.08 353.73 436.01 351.19 436.05 348.04 C 435.28 335.96 434.64 323.88 433.77 311.82 Z" />
</g>
<g id="#d14d4dff">
<path fill="#d14d4d" opacity="1.00" d=" M 418.87 167.79 C 419.80 167.10 420.77 166.45 421.74 165.81 C 421.75 167.21 421.77 168.61 421.78 170.01 C 433.87 177.92 445.66 186.35 457.97 193.87 C 470.11 186.12 481.99 177.93 494.00 169.96 C 493.99 168.60 493.99 167.23 494.00 165.87 C 495.32 167.05 497.76 167.82 497.49 170.01 C 497.52 186.00 497.49 201.99 497.50 217.98 C 497.94 220.02 496.11 222.01 494.04 221.73 C 470.02 221.76 446.00 221.75 421.98 221.74 C 420.26 221.96 418.20 220.87 418.29 218.94 C 418.10 212.48 418.48 206.01 418.06 199.56 C 417.96 194.86 418.12 190.16 418.15 185.45 C 417.89 180.67 419.23 175.47 417.36 170.98 C 417.84 169.90 418.35 168.85 418.87 167.79 Z" />
<path fill="#d14d4d" opacity="1.00" d=" M 421.04 244.96 C 420.76 241.01 423.96 237.22 428.01 237.28 C 438.68 237.23 449.35 237.23 460.03 237.28 C 463.75 237.13 467.19 240.30 467.17 244.07 C 467.36 251.45 467.22 258.84 467.22 266.22 L 465.87 266.22 C 465.46 266.22 464.65 266.22 464.25 266.22 C 464.23 259.16 464.29 252.11 464.24 245.05 C 464.57 242.58 462.51 240.07 459.96 240.27 C 449.63 240.21 439.31 240.28 428.99 240.23 C 426.30 239.81 423.63 242.27 424.01 245.01 C 423.97 274.01 424.03 303.01 423.99 332.01 C 424.18 335.74 420.81 338.96 417.14 338.95 C 405.42 339.07 393.69 338.96 381.97 339.00 C 377.97 339.40 374.00 336.17 374.06 332.06 C 373.91 320.21 374.04 308.35 374.01 296.50 C 374.75 296.50 376.24 296.50 376.99 296.50 C 377.02 307.99 376.98 319.47 377.00 330.96 C 376.53 333.74 379.13 336.44 381.94 335.99 C 393.31 336.02 404.68 335.98 416.05 336.01 C 418.37 336.37 421.16 334.64 420.98 332.08 C 421.06 303.04 420.92 274.00 421.04 244.96 Z" />
<path fill="#d14d4d" opacity="1.00" d=" M 287.65 316.48 L 288.53 316.39 C 296.38 315.63 304.30 316.30 312.19 316.05 C 320.25 316.22 328.34 315.62 336.38 316.37 C 336.63 316.42 337.12 316.50 337.36 316.54 C 328.98 317.41 320.51 316.97 312.09 316.84 C 303.95 316.42 295.79 317.01 287.65 316.48 Z" />
</g>
<g id="#ba3030ff">
<path fill="#ba3030" opacity="1.00" d=" M 22.01 172.61 C 44.98 172.46 67.96 172.53 90.94 172.58 C 90.94 180.65 90.79 188.73 91.01 196.81 C 90.55 196.89 89.61 197.06 89.15 197.14 C 88.60 198.66 88.14 200.21 87.68 201.75 C 88.68 202.36 89.69 202.98 90.69 203.59 C 90.44 204.32 89.93 205.79 89.67 206.52 C 88.85 206.58 87.19 206.72 86.37 206.78 C 86.38 208.60 86.39 210.41 86.40 212.23 C 88.95 212.25 90.56 213.42 90.57 216.05 C 89.85 216.35 88.40 216.95 87.68 217.25 C 88.06 218.92 88.47 220.59 88.96 222.23 C 89.48 222.23 90.51 222.23 91.02 222.23 C 90.78 232.15 90.93 242.08 90.97 252.00 C 81.09 252.14 71.20 252.09 61.32 252.03 C 61.01 244.58 61.65 237.10 60.92 229.66 C 61.27 229.57 61.96 229.37 62.31 229.27 C 62.93 229.54 64.17 230.07 64.80 230.34 C 65.82 232.12 66.26 234.58 68.09 235.70 C 70.93 235.52 73.95 234.14 75.84 231.96 C 75.37 229.86 74.35 227.95 73.45 226.02 C 75.21 224.18 76.94 222.31 78.63 220.41 C 80.82 220.85 83.27 222.91 85.48 221.56 C 86.73 219.25 87.75 216.68 87.76 214.03 C 86.02 212.64 83.81 212.05 81.79 211.19 C 81.71 208.71 81.59 206.24 81.45 203.77 C 83.38 202.79 85.32 201.80 87.26 200.83 C 86.63 198.04 85.79 195.18 83.89 192.97 C 81.57 192.39 79.41 194.21 77.28 194.93 C 75.50 193.18 73.66 191.50 71.75 189.88 C 72.41 187.92 73.13 185.97 73.55 183.93 C 71.68 181.49 68.22 181.34 65.58 180.16 C 64.29 182.17 63.31 184.36 62.57 186.62 C 60.07 186.67 57.57 186.77 55.08 186.93 C 54.18 185.13 53.37 183.27 52.20 181.63 C 49.21 180.88 46.07 183.07 43.94 185.03 C 44.22 187.16 45.35 189.05 46.22 190.99 C 44.53 192.86 42.87 194.76 41.23 196.67 C 39.18 196.03 37.16 195.05 34.97 195.01 C 32.95 196.72 32.51 199.65 31.89 202.09 C 32.30 204.84 35.97 204.73 37.97 205.89 C 38.03 208.34 38.11 210.78 38.24 213.23 C 36.15 214.32 34.11 215.50 32.17 216.85 C 33.43 219.29 33.94 222.40 36.10 224.22 C 38.40 224.61 41.04 223.17 42.32 221.22 C 43.68 223.76 45.62 225.92 47.84 227.75 C 46.82 230.31 45.28 233.27 47.93 235.39 C 47.99 240.92 48.05 246.46 47.99 251.99 C 39.32 252.34 30.62 251.69 21.95 252.29 C 22.07 225.73 21.95 199.17 22.01 172.61 Z" />
<path fill="#ba3030" opacity="1.00" d=" M 58.02 200.18 C 64.45 198.46 70.57 205.84 67.72 211.86 C 65.58 217.74 56.71 218.92 53.15 213.76 C 49.09 209.18 52.15 201.29 58.02 200.18 Z" />
</g>
<g id="#a92c2cff">
<path fill="#a92c2c" opacity="1.00" d=" M 90.94 172.58 C 113.32 172.55 135.70 172.53 158.08 172.58 C 160.16 172.18 159.58 174.79 159.76 175.98 C 159.71 201.25 159.66 226.52 159.79 251.79 C 136.86 252.02 113.91 252.00 90.97 252.00 C 90.93 242.08 90.78 232.15 91.02 222.23 C 91.47 222.22 92.35 222.21 92.80 222.20 C 93.26 222.69 94.18 223.66 94.64 224.14 C 93.93 225.18 93.22 226.21 92.51 227.25 C 93.63 228.54 94.75 229.82 95.88 231.10 C 96.92 230.42 97.96 229.74 99.00 229.06 C 99.89 229.65 100.79 230.24 101.68 230.83 C 101.45 231.67 100.98 233.35 100.74 234.19 C 102.41 234.90 104.07 235.62 105.74 236.33 C 106.38 235.30 107.03 234.26 107.68 233.23 C 108.45 233.44 109.99 233.86 110.76 234.07 C 110.82 234.90 110.93 236.55 110.99 237.37 C 112.91 237.31 114.83 237.28 116.75 237.25 C 116.76 236.46 116.76 234.87 116.76 234.08 C 117.60 233.92 119.27 233.61 120.11 233.45 C 120.71 234.45 121.32 235.45 121.93 236.45 C 123.58 235.82 125.23 235.19 126.88 234.55 C 126.59 233.39 126.31 232.24 126.04 231.09 C 126.94 230.46 127.84 229.85 128.73 229.22 C 129.60 229.97 130.46 230.72 131.32 231.47 C 132.63 230.36 133.96 229.26 135.05 227.93 C 134.60 226.83 134.04 225.79 133.38 224.81 C 133.96 223.89 134.54 222.96 135.13 222.04 C 136.18 222.47 137.23 222.89 138.28 223.32 C 139.05 221.56 139.77 219.78 140.48 218.00 C 139.49 217.45 138.50 216.91 137.51 216.37 C 137.67 215.56 137.99 213.95 138.15 213.14 C 139.35 213.00 140.55 212.86 141.75 212.72 C 141.71 211.01 141.74 209.29 141.52 207.60 C 140.41 207.24 139.28 206.92 138.14 206.64 C 138.01 205.92 137.75 204.48 137.62 203.76 C 138.65 203.16 139.69 202.56 140.72 201.97 C 140.07 200.37 139.47 198.76 138.66 197.24 C 137.45 197.26 136.26 197.51 135.08 197.74 C 134.63 196.96 134.19 196.19 133.75 195.42 C 134.09 194.19 135.95 192.60 134.61 191.41 C 133.78 190.42 132.87 189.50 131.99 188.58 C 131.01 189.24 130.03 189.91 129.05 190.57 C 128.19 190.02 127.32 189.46 126.46 188.91 C 126.68 187.68 126.89 186.44 127.09 185.21 C 125.62 184.62 124.16 184.01 122.70 183.40 C 121.86 184.37 121.05 185.36 120.24 186.36 C 119.52 186.21 118.08 185.91 117.36 185.76 C 117.16 184.53 116.96 183.29 116.76 182.06 C 115.17 182.07 113.58 182.06 112.00 182.19 C 111.31 183.25 111.26 184.56 110.94 185.76 C 110.20 185.88 108.71 186.13 107.96 186.26 C 107.34 185.25 106.71 184.25 106.09 183.25 C 104.45 183.89 102.82 184.54 101.19 185.21 C 101.48 186.42 101.75 187.63 102.02 188.85 C 101.06 189.30 100.10 189.77 99.15 190.24 C 98.54 189.75 97.31 188.77 96.70 188.28 C 95.36 189.49 94.01 190.71 92.67 191.94 C 93.38 192.91 94.10 193.88 94.82 194.86 C 94.36 195.54 93.43 196.88 92.97 197.55 C 92.48 197.37 91.50 196.99 91.01 196.81 C 90.79 188.73 90.94 180.65 90.94 172.58 Z" />
<path fill="#a92c2c" opacity="1.00" d=" M 110.55 194.67 C 119.52 192.25 129.33 199.72 129.57 208.97 C 130.24 217.25 123.23 225.12 114.92 225.41 C 107.42 225.97 100.07 220.25 98.75 212.86 C 96.93 204.91 102.62 196.34 110.55 194.67 M 109.34 197.42 C 104.23 199.29 100.51 204.50 100.80 210.00 C 100.57 217.07 107.04 223.30 114.04 223.16 C 121.39 223.35 128.10 216.45 127.19 209.03 C 127.22 200.37 117.24 194.07 109.34 197.42 Z" />
<path fill="#a92c2c" opacity="1.00" d=" M 111.13 199.28 C 117.49 197.38 124.58 202.39 124.98 208.99 C 125.70 215.83 118.76 222.14 112.03 220.63 C 106.66 219.68 102.58 214.33 103.10 208.90 C 103.47 204.44 106.85 200.49 111.13 199.28 Z" />
</g>
<g id="#edbcbcff">
<path fill="#edbcbc" opacity="1.00" d=" M 249.55 176.09 C 250.48 174.58 252.08 174.12 253.74 173.99 C 253.73 177.23 253.94 180.48 253.62 183.72 C 253.22 183.90 252.41 184.28 252.00 184.46 C 251.96 181.69 251.98 178.91 252.00 176.14 C 251.39 176.13 250.16 176.10 249.55 176.09 Z" />
<path fill="#edbcbc" opacity="1.00" d=" M 298.59 176.02 C 299.48 174.53 301.13 174.26 302.69 173.97 C 302.72 177.26 302.92 180.55 302.66 183.84 C 302.25 184.01 301.44 184.36 301.03 184.53 C 300.97 181.74 300.98 178.95 300.98 176.16 C 300.38 176.12 299.19 176.05 298.59 176.02 Z" />
<path fill="#edbcbc" opacity="1.00" d=" M 320.56 176.06 C 321.47 174.55 323.09 174.16 324.72 174.03 C 324.72 177.29 324.93 180.57 324.64 183.82 C 324.23 183.99 323.43 184.31 323.03 184.47 C 322.97 181.69 322.97 178.91 322.97 176.14 C 322.37 176.12 321.16 176.08 320.56 176.06 Z" />
<path fill="#edbcbc" opacity="1.00" d=" M 338.93 175.48 C 340.23 174.86 341.57 174.32 342.91 173.79 C 343.06 177.36 343.08 180.95 342.97 184.53 C 339.74 183.65 341.81 179.34 341.32 176.89 C 340.72 176.54 339.53 175.83 338.93 175.48 Z" />
<path fill="#edbcbc" opacity="1.00" d=" M 374.54 176.03 C 375.49 174.56 377.11 174.18 378.73 174.00 C 378.73 177.28 378.92 180.56 378.64 183.82 C 378.23 183.98 377.41 184.30 377.00 184.45 C 376.97 181.71 376.99 178.97 377.00 176.23 C 376.39 176.18 375.15 176.08 374.54 176.03 Z" />
</g>
<g id="#eebcbcff">
<path fill="#eebcbc" opacity="1.00" d=" M 392.78 175.62 C 394.00 174.71 395.40 174.11 396.90 173.79 C 397.06 177.36 397.09 180.94 396.97 184.52 C 392.70 183.52 398.01 176.11 392.78 175.62 Z" />
</g>
<g id="#eebdbdff">
<path fill="#eebdbd" opacity="1.00" d=" M 112.00 182.19 C 113.58 182.06 115.17 182.07 116.76 182.06 C 116.96 183.29 117.16 184.53 117.36 185.76 C 118.08 185.91 119.52 186.21 120.24 186.36 C 121.05 185.36 121.86 184.37 122.70 183.40 C 124.16 184.01 125.62 184.62 127.09 185.21 C 126.89 186.44 126.68 187.68 126.46 188.91 C 127.32 189.46 128.19 190.02 129.05 190.57 C 130.03 189.91 131.01 189.24 131.99 188.58 C 132.87 189.50 133.78 190.42 134.61 191.41 C 135.95 192.60 134.09 194.19 133.75 195.42 C 134.19 196.19 134.63 196.96 135.08 197.74 C 136.26 197.51 137.45 197.26 138.66 197.24 C 139.47 198.76 140.07 200.37 140.72 201.97 C 139.69 202.56 138.65 203.16 137.62 203.76 C 137.75 204.48 138.01 205.92 138.14 206.64 C 139.28 206.92 140.41 207.24 141.52 207.60 C 141.74 209.29 141.71 211.01 141.75 212.72 C 140.55 212.86 139.35 213.00 138.15 213.14 C 137.99 213.95 137.67 215.56 137.51 216.37 C 138.50 216.91 139.49 217.45 140.48 218.00 C 139.77 219.78 139.05 221.56 138.28 223.32 C 137.23 222.89 136.18 222.47 135.13 222.04 C 134.54 222.96 133.96 223.89 133.38 224.81 C 134.04 225.79 134.60 226.83 135.05 227.93 C 133.96 229.26 132.63 230.36 131.32 231.47 C 130.46 230.72 129.60 229.97 128.73 229.22 C 127.84 229.85 126.94 230.46 126.04 231.09 C 126.31 232.24 126.59 233.39 126.88 234.55 C 125.23 235.19 123.58 235.82 121.93 236.45 C 121.32 235.45 120.71 234.45 120.11 233.45 C 119.27 233.61 117.60 233.92 116.76 234.08 C 116.76 234.87 116.76 236.46 116.75 237.25 C 114.83 237.28 112.91 237.31 110.99 237.37 C 110.93 236.55 110.82 234.90 110.76 234.07 C 109.99 233.86 108.45 233.44 107.68 233.23 C 107.03 234.26 106.38 235.30 105.74 236.33 C 104.07 235.62 102.41 234.90 100.74 234.19 C 100.98 233.35 101.45 231.67 101.68 230.83 C 100.79 230.24 99.89 229.65 99.00 229.06 C 97.96 229.74 96.92 230.42 95.88 231.10 C 94.75 229.82 93.63 228.54 92.51 227.25 C 93.22 226.21 93.93 225.18 94.64 224.14 C 94.18 223.66 93.26 222.69 92.80 222.20 C 92.35 222.21 91.47 222.22 91.02 222.23 C 90.51 222.23 89.48 222.23 88.96 222.23 C 88.47 220.59 88.06 218.92 87.68 217.25 C 88.40 216.95 89.85 216.35 90.57 216.05 C 90.56 213.42 88.95 212.25 86.40 212.23 C 86.39 210.41 86.38 208.60 86.37 206.78 C 87.19 206.72 88.85 206.58 89.67 206.52 C 89.93 205.79 90.44 204.32 90.69 203.59 C 89.69 202.98 88.68 202.36 87.68 201.75 C 88.14 200.21 88.60 198.66 89.15 197.14 C 89.61 197.06 90.55 196.89 91.01 196.81 C 91.50 196.99 92.48 197.37 92.97 197.55 C 93.43 196.88 94.36 195.54 94.82 194.86 C 94.10 193.88 93.38 192.91 92.67 191.94 C 94.01 190.71 95.36 189.49 96.70 188.28 C 97.31 188.77 98.54 189.75 99.15 190.24 C 100.10 189.77 101.06 189.30 102.02 188.85 C 101.75 187.63 101.48 186.42 101.19 185.21 C 102.82 184.54 104.45 183.89 106.09 183.25 C 106.71 184.25 107.34 185.25 107.96 186.26 C 108.71 186.13 110.20 185.88 110.94 185.76 C 111.26 184.56 111.31 183.25 112.00 182.19 M 110.55 194.67 C 102.62 196.34 96.93 204.91 98.75 212.86 C 100.07 220.25 107.42 225.97 114.92 225.41 C 123.23 225.12 130.24 217.25 129.57 208.97 C 129.33 199.72 119.52 192.25 110.55 194.67 Z" />
<path fill="#eebdbd" opacity="1.00" d=" M 109.34 197.42 C 117.24 194.07 127.22 200.37 127.19 209.03 C 128.10 216.45 121.39 223.35 114.04 223.16 C 107.04 223.30 100.57 217.07 100.80 210.00 C 100.51 204.50 104.23 199.29 109.34 197.42 M 111.13 199.28 C 106.85 200.49 103.47 204.44 103.10 208.90 C 102.58 214.33 106.66 219.68 112.03 220.63 C 118.76 222.14 125.70 215.83 124.98 208.99 C 124.58 202.39 117.49 197.38 111.13 199.28 Z" />
<path fill="#eebdbd" opacity="1.00" d=" M 190.23 256.45 C 190.75 255.20 191.73 254.51 193.15 254.38 C 193.62 254.86 194.55 255.82 195.02 256.30 C 194.35 257.37 193.69 258.44 193.08 259.54 C 192.04 258.63 190.32 258.06 190.23 256.45 Z" />
</g>
<g id="#741e1eff">
<path fill="#741e1e" opacity="1.00" d=" M 46.99 201.03 C 50.15 198.47 54.25 197.74 58.21 197.62 C 55.65 200.03 52.81 202.09 49.93 204.11 C 50.41 207.72 50.83 211.34 51.09 214.97 C 54.47 216.49 57.87 217.97 61.27 219.47 C 64.30 217.35 67.25 215.13 70.23 212.95 C 69.93 209.82 69.59 206.69 69.39 203.55 C 76.78 211.50 72.99 226.50 62.31 229.27 C 61.96 229.37 61.27 229.57 60.92 229.66 C 58.94 230.19 56.95 230.68 54.95 231.15 C 54.33 244.41 54.88 257.69 54.68 270.96 C 54.74 277.63 54.54 284.31 54.99 290.98 L 54.65 290.98 C 52.57 290.98 50.49 291.00 48.40 290.97 C 47.54 289.75 46.66 288.54 45.77 287.34 C 46.30 287.36 47.36 287.41 47.89 287.43 C 47.94 285.62 47.99 283.82 48.01 282.02 C 48.03 279.48 48.01 276.94 48.01 274.41 C 48.00 273.18 48.00 271.96 48.00 270.75 C 48.00 266.05 48.00 261.35 48.00 256.66 C 37.66 256.65 27.33 256.65 17.00 256.66 L 17.00 255.73 C 27.32 255.61 37.65 255.70 47.97 255.74 C 47.98 255.04 47.98 253.63 47.99 252.93 C 39.33 252.18 30.54 253.60 21.95 252.29 C 30.62 251.69 39.32 252.34 47.99 251.99 C 48.05 246.46 47.99 240.92 47.93 235.39 C 47.98 232.84 47.99 230.29 47.84 227.75 C 45.62 225.92 43.68 223.76 42.32 221.22 C 38.87 214.51 40.85 205.50 46.99 201.03 Z" />
<path fill="#741e1e" opacity="1.00" d=" M 61.32 252.03 C 71.20 252.09 81.09 252.14 90.97 252.00 C 113.91 252.00 136.86 252.02 159.79 251.79 C 161.45 251.80 163.10 251.79 164.76 251.78 C 174.18 251.71 183.61 251.77 193.03 251.75 C 193.06 252.41 193.12 253.72 193.15 254.38 C 191.73 254.51 190.75 255.20 190.23 256.45 C 190.32 258.06 192.04 258.63 193.08 259.54 L 192.90 260.17 C 178.59 260.00 164.27 260.11 149.97 260.11 L 149.15 260.16 C 148.93 274.11 149.12 288.08 149.03 302.04 C 149.82 324.36 149.41 346.71 149.38 369.04 C 163.88 369.82 178.44 369.27 192.96 369.33 C 192.94 371.88 192.91 374.44 192.90 377.00 C 177.92 377.00 162.94 377.00 147.96 377.00 C 145.60 377.26 143.12 375.93 142.46 373.57 C 142.07 371.40 142.27 369.19 142.24 367.01 C 142.29 334.93 142.21 302.86 142.28 270.78 C 142.78 265.86 142.57 260.92 142.55 255.99 C 142.61 254.94 142.68 253.90 142.76 252.87 C 115.63 252.45 88.49 253.02 61.37 252.65 L 61.32 252.03 Z" />
</g>
<g id="#db7373ff">
<path fill="#db7373" opacity="1.00" d=" M 284.64 199.05 C 293.79 198.90 302.94 199.06 312.08 198.96 C 315.14 198.94 318.20 199.02 321.26 199.18 C 320.18 202.61 315.56 200.64 312.87 201.22 C 303.71 201.17 294.53 201.62 285.39 201.08 C 285.20 200.57 284.83 199.55 284.64 199.05 Z" />
<path fill="#db7373" opacity="1.00" d=" M 285.40 241.96 C 294.53 241.32 303.72 241.83 312.87 241.77 C 315.60 242.31 320.01 240.50 321.34 243.78 C 318.25 243.97 315.16 244.06 312.07 244.04 C 302.92 243.91 293.76 244.17 284.61 243.93 C 284.80 243.44 285.20 242.45 285.40 241.96 Z" />
</g>
<g id="#cb4646ff">
<path fill="#cb4646" opacity="1.00" d=" M 61.12 256.10 C 88.26 255.85 115.41 256.09 142.55 255.99 C 142.57 260.92 142.78 265.86 142.28 270.78 C 141.84 266.20 141.99 261.60 142.01 257.01 C 125.01 256.94 108.02 257.04 91.03 256.96 C 81.32 256.91 71.60 256.87 61.89 256.97 L 61.08 256.98 L 61.12 256.10 Z" />
</g>
<g id="#db9d9df1">
<path fill="#db9d9d" opacity="0.95" d=" M 61.08 256.98 L 61.89 256.97 C 61.81 261.43 61.80 265.89 61.87 270.36 C 71.55 270.70 81.25 270.44 90.94 270.21 C 96.58 270.06 102.26 269.71 107.86 270.59 C 102.20 271.13 96.52 270.79 90.85 270.91 C 85.22 270.92 79.60 270.93 73.97 270.84 C 69.71 270.75 65.44 270.77 61.18 270.86 C 61.04 266.23 61.01 261.61 61.08 256.98 Z" />
</g>
<g id="#a52b2bff">
<path fill="#a52b2b" opacity="1.00" d=" M 83.41 260.59 C 85.91 260.29 88.44 260.42 90.96 260.30 C 94.00 260.49 97.76 259.19 100.14 261.69 C 97.06 261.07 93.90 260.96 90.77 260.98 C 90.78 262.30 90.78 263.63 90.77 264.95 C 93.90 265.05 97.05 264.99 100.12 264.28 C 97.78 266.86 93.95 265.48 90.91 265.70 C 88.41 265.58 85.90 265.70 83.42 265.37 C 81.03 265.21 81.02 260.82 83.41 260.59 Z" />
<path fill="#a52b2b" opacity="1.00" d=" M 73.97 270.84 C 79.60 270.93 85.22 270.92 90.85 270.91 C 90.71 275.94 90.70 280.97 90.79 286.00 C 84.77 285.99 78.75 286.01 72.72 285.99 C 73.11 283.89 71.04 283.53 69.60 282.82 C 70.23 280.62 70.78 278.41 71.29 276.19 C 71.85 276.07 72.98 275.84 73.54 275.73 C 73.67 274.09 73.82 272.46 73.97 270.84 Z" />
<path fill="#a52b2b" opacity="1.00" d=" M 302.18 283.11 C 305.43 282.36 308.81 282.83 312.12 282.65 C 315.48 282.60 318.87 282.42 322.22 282.90 C 318.88 282.91 315.55 283.10 312.22 283.22 C 312.23 285.35 312.23 287.47 312.25 289.60 C 308.86 289.50 305.45 289.82 302.09 289.28 C 299.76 287.98 299.85 284.35 302.18 283.11 Z" />
<path fill="#a52b2b" opacity="1.00" d=" M 290.32 296.48 C 297.59 296.50 304.86 296.68 312.12 296.91 C 312.41 303.28 312.24 309.67 312.19 316.05 C 304.30 316.30 296.38 315.63 288.53 316.39 C 288.79 309.73 289.76 303.12 290.32 296.48 Z" />
</g>
<g id="#e18a8aff">
<path fill="#e18a8a" opacity="1.00" d=" M 149.97 260.11 C 164.27 260.11 178.59 260.00 192.90 260.17 C 206.90 260.44 220.90 260.25 234.91 260.27 C 234.90 272.63 235.22 285.00 234.74 297.36 C 233.21 295.54 232.39 292.67 229.88 292.00 C 227.87 291.98 227.13 294.00 226.20 295.40 C 218.93 295.98 211.68 297.56 204.39 296.31 C 202.65 297.59 202.22 300.10 200.34 301.27 C 198.02 302.84 195.48 304.07 193.13 305.59 C 192.27 290.74 192.94 275.83 192.75 260.96 C 178.50 260.47 164.22 260.72 149.96 260.83 L 149.97 260.11 Z" />
<path fill="#e18a8a" opacity="1.00" d=" M 465.87 266.22 L 467.22 266.22 C 468.72 266.23 470.23 266.24 471.75 266.26 C 471.74 300.65 471.64 335.05 471.80 369.44 L 471.80 369.65 C 469.80 371.12 467.83 372.87 465.23 373.06 C 465.64 362.03 465.19 351.00 465.42 339.97 C 465.36 336.68 466.30 332.62 462.81 330.76 C 464.86 330.98 466.93 331.16 469.00 331.32 C 468.92 329.91 468.86 328.50 468.80 327.09 C 467.59 327.12 466.38 327.17 465.18 327.23 C 465.19 325.79 465.20 324.35 465.22 322.92 C 466.44 322.88 467.66 322.84 468.89 322.78 C 468.77 321.38 469.13 319.86 468.55 318.55 C 467.44 318.41 466.33 318.35 465.22 318.36 C 465.22 317.51 465.22 315.80 465.23 314.95 C 466.44 314.96 467.66 314.97 468.89 314.97 C 468.90 313.57 468.93 312.18 468.96 310.80 C 466.94 310.90 464.93 311.02 462.92 311.15 C 463.71 310.42 464.53 309.72 465.35 309.03 C 465.12 305.25 466.83 300.23 462.92 297.88 C 463.64 297.95 465.10 298.09 465.82 298.16 C 466.38 298.16 467.50 298.16 468.06 298.17 L 468.94 297.95 C 469.13 292.56 468.94 287.17 469.06 281.79 C 467.96 281.60 466.87 281.44 465.78 281.32 C 465.53 276.29 465.52 271.24 465.87 266.22 Z" />
</g>
<g id="#a62e2ecf">
<path fill="#a62e2e" opacity="0.81" d=" M 62.21 288.09 C 61.42 286.78 61.61 285.88 62.78 285.41 C 63.58 286.72 63.39 287.62 62.21 288.09 Z" />
<path fill="#a62e2e" opacity="0.81" d=" M 85.33 290.99 C 86.50 290.96 87.68 290.98 88.86 291.05 C 89.86 293.73 84.64 293.38 85.33 290.99 Z" />
</g>
<g id="#62262678">
<path fill="#622626" opacity="0.47" d=" M 66.02 289.98 C 65.91 288.18 66.30 285.56 68.70 285.88 C 68.38 286.96 68.08 288.04 67.81 289.14 C 67.36 289.35 66.47 289.77 66.02 289.98 Z" />
</g>
<g id="#da7070ff">
<path fill="#da7070" opacity="1.00" d=" M 229.21 294.08 C 231.14 293.24 231.69 296.54 229.81 296.82 C 228.15 297.18 227.64 294.53 229.21 294.08 Z" />
</g>
<g id="#8f2828b3">
<path fill="#8f2828" opacity="0.70" d=" M 83.18 298.96 C 82.77 297.76 84.55 296.34 85.65 296.93 C 86.07 298.13 84.28 299.57 83.18 298.96 Z" />
</g>
<g id="#812424a2">
<path fill="#812424" opacity="0.64" d=" M 86.33 302.85 C 85.84 301.57 87.76 300.05 88.94 300.56 C 89.70 301.89 87.56 303.58 86.33 302.85 Z" />
</g>
<g id="#edbbbbff">
<path fill="#edbbbb" opacity="1.00" d=" M 153.15 309.00 C 154.78 308.51 155.31 309.08 154.76 310.72 C 153.13 311.19 152.59 310.61 153.15 309.00 Z" />
</g>
<g id="#c03232ff">
<path fill="#c03232" opacity="1.00" d=" M 462.92 311.15 C 464.93 311.02 466.94 310.90 468.96 310.80 C 468.93 312.18 468.90 313.57 468.89 314.97 C 467.66 314.97 466.44 314.96 465.23 314.95 C 464.61 314.92 463.39 314.86 462.77 314.83 C 462.78 313.60 462.83 312.37 462.92 311.15 Z" />
<path fill="#c03232" opacity="1.00" d=" M 463.08 318.49 C 463.61 318.46 464.68 318.39 465.22 318.36 C 466.33 318.35 467.44 318.41 468.55 318.55 C 469.13 319.86 468.77 321.38 468.89 322.78 C 467.66 322.84 466.44 322.88 465.22 322.92 C 462.28 323.13 462.66 320.50 463.08 318.49 Z" />
<path fill="#c03232" opacity="1.00" d=" M 462.98 327.39 C 463.53 327.35 464.63 327.27 465.18 327.23 C 466.38 327.17 467.59 327.12 468.80 327.09 C 468.86 328.50 468.92 329.91 469.00 331.32 C 466.93 331.16 464.86 330.98 462.81 330.76 C 462.84 329.63 462.89 328.51 462.98 327.39 Z" />
</g>
<g id="#922929b7">
<path fill="#922929" opacity="0.72" d=" M 25.13 349.88 C 24.64 348.63 26.61 347.37 27.67 348.00 C 28.11 349.22 26.17 350.43 25.13 349.88 Z" />
</g>
<g id="#822424a2">
<path fill="#822424" opacity="0.64" d=" M 28.28 353.89 C 27.91 352.64 29.67 350.98 30.90 351.39 C 31.57 352.74 29.59 354.56 28.28 353.89 Z" />
</g>
<g id="#75202093">
<path fill="#752020" opacity="0.58" d=" M 47.30 361.02 C 48.87 361.36 48.04 363.99 46.76 364.22 C 45.17 363.87 46.05 361.29 47.30 361.02 Z" />
</g>
</svg>
